<svg xmlns="http://www.w3.org/2000/svg" viewBox="0 0 64 64" width="64" height="64"><path d="M9.6 1.1C7.2 3.7 5.3 6.6 3.7 9.9L19.7 24.9 18 26.8 2.7 12.4C1.5 15.7 0.6 19.3 0.2 23L16 31 14.9 33.2 0 25.7c-0.1 3.3 0.1 6.7 0.7 10.2L14.4 37.1 14.2 39.6 1.3 38.5c0.1 0.4 0.2 0.8 0.3 1.3 0.6 2.2 1.3 4.4 2.2 6.4 1.2-0.2 2.4-0.4 3.8-0.7 3.6-0.7 7.2-1.4 7.2-1.4l0.5 2.5c0 0-3.6 0.7-7.2 1.4-1.1 0.2-2.1 0.4-3.1 0.6 1.2 2.4 2.5 4.6 4 6.6l8.3-4.7 1.2 2.2-7.9 4.5c1.7 2 3.5 3.8 5.4 5.4l2.3-2.8c0.2-2.8 0.7-5.1 2-7 0.9-1.3 2.1-2.3 3.7-3-1.1-1.7-2-3.7-2.6-5.9-2-7.3 0.1-14.7 4.9-18.7L9.6 1.1Zm44.9 0-16.7 24.2c4.9 4 6.9 11.4 4.9 18.7-0.6 2.2-1.5 4.1-2.6 5.8 1.7 0.7 2.9 1.8 3.7 3.2 1.1 1.8 1.4 4 1.5 6.4l2.7 3.2c1.9-1.6 3.7-3.4 5.4-5.4l-7.9-4.5 1.2-2.2 8.3 4.7c1.5-2.1 2.8-4.3 4-6.6-1-0.2-2.1-0.4-3.2-0.6-3.6-0.7-7.2-1.4-7.2-1.4l0.5-2.5c0 0 3.6 0.7 7.2 1.4 1.3 0.3 2.6 0.5 3.8 0.7 0.9-2 1.6-4.2 2.2-6.4 0.1-0.4 0.2-0.8 0.3-1.3l-12.9 1.1-0.2-2.5 13.6-1.1c0.6-3.5 0.9-6.9 0.7-10.2L49.1 33.2 48 31 63.8 23C63.4 19.3 62.5 15.7 61.3 12.4L46 26.8 44.3 24.9 60.3 9.9C58.7 6.6 56.8 3.7 54.4 1.1Z" style="fill:#d40000;stroke-width:0.1"/><g transform="matrix(0.0969697 0 0 0.0969697 7.1757574 13.124344)"><path d="M253.4-0.6 42.3 138.9l1.3 235.5 209.9 138.2 216.3-135.6-1.3-232.9z" style="fill:#fff;stroke-width:1px;stroke:#fff"/><path d="M248 20.3 72.3 132.6 248 128.8Zm16 0v108.5l175.7 3.8zm37.8 55.1c4.6-0.1 9.8 1.8 13.6 3.8 6.1 3.5 8.2 7.2 15.1 4.2 10.7 0.8 22.3 5.8 27.6 15.7 4.7 4.6 1.6 12.6-5.2 12.7-9.7 0.1-19.7-6.1-14.6-8.3 4.7-2 14.6 0.9 10-5.6-3.6-4.4-11.1-7.8-16.4-5.9-1.6 6.8-9.4 4-12-0.6-2.4-5.8-9.2-8.2-15.1-7.9-6.1 2.7 1.7 8.8 5.3 9.9 7.9 2.1 0.2 7.5-4.1 5.1-4.3-2.4-15-9.6-13.5-18.3 2.2-3.3 5.5-4.6 9.1-4.7zm-95 0.3c5.5 0.5 12.4 3.1 10.2 10-4.3 6.9-9.8 13.1-18.1 14.8-6.5 3.4-14.9 4.4-21.6 1.9-3.6-2.2-13.4-9.3-14.8-3.4-0.7 6.2 3 15.4-6.1 15.8l-5 2v-24.5c9.8-3.9 21-4.5 30.3 1.3 8 4.2 19.4 1.5 24.3-5.8 1.3-6.5-8.2-4.6-12.2-3.3-2.7-8.3 7.9-7.5 13.2-8.9zm35 69.3-186.5 4.1 71.2 192.9zm28.3 0 115.3 197 71.2-192.9zm-14.1 7.5-117.1 200.1h234.2zm122.4 18.1c3.9 0 7.9 1.2 10.9 3 13.8 8.2 21.5 26.1 22.1 43 0.1 5.7-1.6 13.2-6 17-2.8 2-6 3.2-9.2 4.4-16.8-1.2-23.9-19.2-29.7-32.6-3.4-9.9-5.8-24 1.7-31.3 2.5-2.4 6.3-3.5 10.2-3.4zm-227.6 7.7c6.5 0.3 12.9 5 14.8 11.3 2.1 4-0.6 11.4-4.9 12.1-4.9 0.7-3.8-9.3-9.3-11.6-5.9-3.7-11.5 4.3-14.2 8.7-0.3 1-0.7 1.9-0.9 2.9 10.4-4.1 20.3 7.1 20.3 17-0.3 11.7-7.8 24.8-19.7 28.1h-5.6c-12.7-0.7-18.3-15.9-14.2-26.6 4.4-15.8 10.8-33.9 27.1-40.6 2-1 4.2-1.4 6.4-1.3zm228.7 3c-7.1-0.1-4.4 10-3.3 14.5 1.6 10.1 6.5 19.8 13.2 27.3 1.7 1.4 3.7 2.1 5.8 2.7 6.9-1.3 4.5-12.8 3.7-16.5-4.7-10.9-7.1-23.3-19.3-27.9zM52 186v173.3l61.9-5.7zm408 0-61.9 167.6 61.9 5.7zm-117.9 0.7 28.5 63.5-10 4.4-20-43.4c-6 3.1-13 9-14.6-1.3-1.3-4 8.5-5.1 8.2-12-0.4-6.9 2.2-12.1 8-11.3zm-205.8 24.3c-2.3 0.2-4.5 1.4-6.1 3.1-2.4 5.1-4.1 10.3-2.7 15.9 1.7 8.8 13.5 6.4 15.6-0.8 2.7-5 3.9-11.6-0.5-15.7-1.7-1.6-3.5-2.4-5.2-2.5-0.3 0-0.7 0-1 0zm317.5 33.7c3.7 0.3 5.8 6.9 4.7 11-0.1 18.6 1.1 39.2-9.7 55.3-1 1.3-2.3 1.9-3.7 2.6-5.8-4.2-3-11.4 1.1-15.6 1 7.3 5.6-2.9 6.7-5.6 1.3-3.2 3.5-17.7-1-10.3 0.7 4.1-6.8 13.2-9.4 8.1-4.9-14.4 0-30.5 7-43.4 1.5-1.7 2.9-2.3 4.2-2.2zM59.9 245.5c0.6 0.1 1.3 1 2.5 3.6v61.2c-7.3-7-3.6-17.4-4.4-26.4-0.8-7.6 1.7-16.3-1.3-23.2-4.6-1.7-5.8-17-3.2-12.7 4.4 4.8 4.7-2.7 6.4-2.5zm166 4.3c4.5 0.1 8.9 1.2 12.8 3.3 8.1 4.4 13.7 14.4 10.8 23.6-2.3 9.6-10.6 16.2-19.2 20.2-4.1 2.6-9.4 4.6-11.3 9.5-1.2 3 25.4 1.6 30.3 1.6 0.5 4 1.5 10.7-3.8 11.7-14.5-1.2-29.9-0.6-45.1-0.6 0.4-11.2 7.4-21.3 17-26.8 6.9-4.9 15.4-9.3 18.1-17.9 1.8-4.4-0.6-9.3-4.6-11.5-4.2-2.9-10.9-2.3-13.2 2.7-2 3.8-4.4 9.1-8.7 9.6-2.9 0.4-9 0.5-7.3-4.9 1.5-5.6 3.4-11.6 8.3-15.2 4.5-3.7 10.2-5.4 15.9-5.3zm58.6 0.5c2.5 0 5.1 0.5 7.5 1.4 6.8 2.2 12 7.9 14.3 14.7 6.1 14.7 5.6 33-4.4 45.9-4.4 4.7-10.1 9.1-16.9 9.1-12.5-0.2-22.5-11.2-24.8-22.9-3.1-13.4-1.8-28.6 6.9-39.7 3.7-5.4 10-8.2 16.4-8.4 0.4 0 0.7 0 1.1 0zm166.4 5.8c-1 0-2 1-2.8 3.7-1.6 5.9-3.3 13.4-0.8 19.3 5.1-2 5.5-9.6 6.7-14.4 1.1-3.3-0.9-8.5-3.1-8.5zm-165.8 5.6c-3.4-0.2-6.8 2.6-8.3 5.6-2.3 4.1-2.1 9-2.8 13.6-0.8 9.1-0.3 19.2 5.5 26.7l2.2 1.5c4.9 1.8 9.7-2.2 11.1-6.7 2-6.2 2.3-12.9 2.4-19.4-0.2-7-1.5-14.9-6.7-20-1-0.8-2.2-1.2-3.3-1.3zm149 5.2v61.2l-4.5 6.7v-42.3c-4.6 7.5-9 9-6.1-0.9 6.1-7.1 4.8-17.4 10.5-24.7zm-359.4 1.1c0 0.1 0 0.1 0.1 0.2 4.5-0.5 7.3 7.3 9.1 10.9 0.8 3.6 5.1 17.8 2 14.8-0.3-0.5-0.5-0.9-0.8-1.4l1.8 3.3c-4.6-3.7-6.4-10.5-4.4-8-1.6-3-3-6.1-4.2-9.2-0.1 1.2-0.7 2.1-2.5 2.8-1.3 3.5-1.3 7.1-0.7 10.6 0.2-1.7 1.2-2.4 3.4-0.8 7.8 12.6 12.2 29.1 7.3 43.5l-2.2 1.1c-10.4-5.8-11.4-19.4-13.4-30-1.6-12.3-0.8-24.7 2.3-36.7 0.8-0.5 1.6-0.8 2.3-0.9 0-0.1 0-0.1-0.1-0.2zm0.1 0.2c0.1 0.4 0.2 0.8 0.4 1.2-0.1-0.4-0.2-0.8-0.4-1.2zm2.1 31.1c-4.1 4.6-2.3 12.8-0.4 18.4 1.1 5.5 6.9 10.1 6.1 1.5 0-5.6 0.2-11.7-3-16.4-1-0.5-1.9-1.9-2.7-3.5zM143.2 368.6 256 491.7 368.8 368.6Zm-21.4 0.3-53.8 5 64.2 41.1c-2.6-2.7-4.9-5.7-7.1-8.8-5.1-6.9-10.5-13.7-18.9-16.7-8.7-6.4-4.2-5.3 2.9-2.5-0.9-1.9-0.7-2.6 0.1-2.7 2.2-0.2 8.4 4.2 9.7 6.4l24.7 31.6 65.2 41.7zm268.5 0-42.5 46.4c6.4-3.1 11.4-8.5 17.1-12.5 2.4-1.3 3.7-1.9 4.3-1.9 2.1 0-5.4 7.1-7.7 10.3-9.4 9.8-16.1 23-28.7 29.1l18.9-24.5c-2.3 1.3-5.9 3.2-8.2 4.1l-40.3 44 74.5-47.6c5.5-6.7 1.9-5.5-5.6-0.9l-11.4 6c11.5-13.7 26.9-23.6 40.1-35.6 3.2-1.5 9.5-5.7 11-5.7 0.8 0 0.2 1-2.8 4.2l-12.6 16c10-7.5 0.9 3.9-4.4 5.6-0.7 1-1.4 2-2.2 2.9l54.5-34.9zm-158.3 16.6c1.4 0 2.7 0.1 4 0.3v43.4h-13.3v-30c-5-1.4-10.4 1.7-15.3-0.3-3.8-2.9 1-6.8 4.5-5.9 3.3-0.1 7.6 0.2 9.3-3.2 2.6-3.3 6.8-4.3 10.8-4.2zm33 0.8c0.5 0 1 0 1.5 0.2 3.1 0.8 6.5 0.2 9.7 0.4h25.4c1.5 3 0.8 7.8-3.3 7.9-3.9 0.5-7.8-0.4-11.7 0.2-4.7 0.1-9.8-1.8-14.2 0.4-3.1 1.7-4.2 8.5 1 6.1 3.4-1.1 6.9-1.8 10.4-0.9 7 1.1 15 2.9 19.1 9.2 2.1 3.2 2.7 7.3 0.6 10.7-3.6 6.5-11.5 8.4-18.3 9.8-2.3 0.4-4.7 1.4-7 1.2-7.2-0.6-15.6-1.1-20.6-7.1-2.7-2.5-2.7-7.1 1.9-6.7 3.6-0.1 8.7-0.4 10.3 3.5 3.2 3.7 8.8 2.9 13.1 2 3.6-0.5 7.5-2.5 7.6-6.7 0.6-4.2-3.1-7.2-6.8-7.8-5.8-2.4-11.6 1.4-17.4 1.8-3.5 1-9.6 0.5-8.9-4.5 0.8-4.2 2.7-8.1 2.7-12.5 0.1-3 1.6-7 4.9-7.2zm133.5 5c-0.2-0.2-7 5.7-9.9 8.1l-15.7 13.1c8.6-4.4 16.5-9.6 22.3-17.4 2.6-2.6 3.5-3.7 3.4-3.7zm-247 14.2c2.4 0 7.5 4.7 9.5 7.1l26.1 31.1c-7.7-2.2-13.3-7.2-17.7-13.8-6.4-7.3-11.3-16.6-21.2-19.5-8.9-5-5.2-6.4 2.1-2.3-0.3-1.9 0.2-2.6 1.2-2.6z"/></g></svg>
