<svg xmlns="http://www.w3.org/2000/svg" viewBox="0 0 64 64" width="64" height="64"><path d="M9.6 1.1C7.2 3.7 5.3 6.6 3.7 9.9L19.7 24.9 18 26.8 2.7 12.4C1.5 15.7 0.6 19.3 0.2 23L16 31 14.9 33.2 0 25.7c-0.1 3.3 0.1 6.7 0.7 10.2L14.4 37.1 14.2 39.6 1.3 38.5c0.1 0.4 0.2 0.8 0.3 1.3 0.6 2.2 1.3 4.4 2.2 6.4 1.2-0.2 2.4-0.4 3.8-0.7 3.6-0.7 7.2-1.4 7.2-1.4l0.5 2.5c0 0-3.6 0.7-7.2 1.4-1.1 0.2-2.1 0.4-3.1 0.6 1.2 2.4 2.5 4.6 4 6.6l8.3-4.7 1.2 2.2-7.9 4.5c1.7 2 3.5 3.8 5.4 5.4l2.3-2.8c0.2-2.8 0.7-5.1 2-7 0.9-1.3 2.1-2.3 3.7-3-1.1-1.7-2-3.7-2.6-5.9-2-7.3 0.1-14.7 4.9-18.7L9.6 1.1Zm44.9 0-16.7 24.2c4.9 4 6.9 11.4 4.9 18.7-0.6 2.2-1.5 4.1-2.6 5.8 1.7 0.7 2.9 1.8 3.7 3.2 1.1 1.8 1.4 4 1.5 6.4l2.7 3.2c1.9-1.6 3.7-3.4 5.4-5.4l-7.9-4.5 1.2-2.2 8.3 4.7c1.5-2.1 2.8-4.3 4-6.6-1-0.2-2.1-0.4-3.2-0.6-3.6-0.7-7.2-1.4-7.2-1.4l0.5-2.5c0 0 3.6 0.7 7.2 1.4 1.3 0.3 2.6 0.5 3.8 0.7 0.9-2 1.6-4.2 2.2-6.4 0.1-0.4 0.2-0.8 0.3-1.3l-12.9 1.1-0.2-2.5 13.6-1.1c0.6-3.5 0.9-6.9 0.7-10.2L49.1 33.2 48 31 63.8 23C63.4 19.3 62.5 15.7 61.3 12.4L46 26.8 44.3 24.9 60.3 9.9C58.7 6.6 56.8 3.7 54.4 1.1ZM26.3 44c-19.5 15.1-9.8 7.6 0 0z" style="fill:#ccc;stroke-width:0.1"/><path d="M31.8 13.1 11.3 26.6 11.4 49.4 31.8 62.8 52.7 49.7 52.6 27.1Z" style="fill:#fff;stroke-width:0.1px;stroke:#fff"/><path d="M31.2 15.1 14.2 26 31.2 25.6Zm1.6 0v10.5l17 0.4zm3.7 5.3c0.5 0 0.9 0.2 1.3 0.4 0.6 0.3 0.8 0.7 1.5 0.4 1 0.1 2.2 0.6 2.7 1.5 0.5 0.4 0.2 1.2-0.5 1.2-0.9 0-1.9-0.6-1.4-0.8 0.5-0.2 1.4 0.1 1-0.5-0.4-0.4-1.1-0.8-1.6-0.6-0.2 0.7-0.9 0.4-1.2-0.1-0.2-0.6-0.9-0.8-1.5-0.8-0.6 0.3 0.2 0.9 0.5 1 0.8 0.2 0 0.7-0.4 0.5-0.4-0.2-1.5-0.9-1.3-1.8 0.2-0.3 0.5-0.4 0.9-0.5zm-9.2 0c0.5 0.1 1.2 0.3 1 1-0.4 0.7-0.9 1.3-1.8 1.4-0.6 0.3-1.4 0.4-2.1 0.2-0.3-0.2-1.3-0.9-1.4-0.3-0.1 0.6 0.3 1.5-0.6 1.5l-0.5 0.2v-2.4c1-0.4 2-0.4 2.9 0.1 0.8 0.4 1.9 0.1 2.4-0.6 0.1-0.6-0.8-0.4-1.2-0.3-0.3-0.8 0.8-0.7 1.3-0.9zm3.4 6.7-18.1 0.4 6.9 18.7zm2.7 0 11.2 19.1 6.9-18.7zM32 27.9 20.6 47.3h22.7zm11.9 1.8c0.4 0 0.8 0.1 1.1 0.3 1.3 0.8 2.1 2.5 2.1 4.2 0 0.6-0.2 1.3-0.6 1.7-0.3 0.2-0.6 0.3-0.9 0.4-1.6-0.1-2.3-1.9-2.9-3.2-0.3-1-0.6-2.3 0.2-3 0.2-0.2 0.6-0.3 1-0.3zM21.8 30.4c0.6 0 1.3 0.5 1.4 1.1 0.2 0.4-0.1 1.1-0.5 1.2-0.5 0.1-0.4-0.9-0.9-1.1-0.6-0.4-1.1 0.4-1.4 0.8 0 0.1-0.1 0.2-0.1 0.3 1-0.4 2 0.7 2 1.6 0 1.1-0.8 2.4-1.9 2.7h-0.5c-1.2-0.1-1.8-1.5-1.4-2.6 0.4-1.5 1-3.3 2.6-3.9 0.2-0.1 0.4-0.1 0.6-0.1zm22.2 0.3c-0.7 0-0.4 1-0.3 1.4 0.2 1 0.6 1.9 1.3 2.6 0.2 0.1 0.4 0.2 0.6 0.3 0.7-0.1 0.4-1.2 0.4-1.6-0.5-1.1-0.7-2.3-1.9-2.7zm-31.8 0.5v16.8l6-0.6zm39.6 0-6 16.2 6 0.6zm-11.4 0.1 2.8 6.2-1 0.4-1.9-4.2c-0.6 0.3-1.3 0.9-1.4-0.1-0.1-0.4 0.8-0.5 0.8-1.2 0-0.7 0.2-1.2 0.8-1.1zM20.4 33.6c-0.2 0-0.4 0.1-0.6 0.3-0.2 0.5-0.4 1-0.3 1.5 0.2 0.9 1.3 0.6 1.5-0.1 0.3-0.5 0.4-1.1 0-1.5-0.2-0.2-0.3-0.2-0.5-0.2 0 0-0.1 0-0.1 0zm30.8 3.3c0.4 0 0.6 0.7 0.5 1.1 0 1.8 0.1 3.8-0.9 5.4-0.1 0.1-0.2 0.2-0.4 0.2-0.6-0.4-0.3-1.1 0.1-1.5 0.1 0.7 0.5-0.3 0.6-0.5 0.1-0.3 0.3-1.7-0.1-1 0.1 0.4-0.7 1.3-0.9 0.8-0.5-1.4 0-3 0.7-4.2 0.1-0.2 0.3-0.2 0.4-0.2zm-38.2 0.1c0.1 0 0.1 0.1 0.2 0.3v5.9c-0.7-0.7-0.3-1.7-0.4-2.6-0.1-0.7 0.2-1.6-0.1-2.2-0.4-0.2-0.6-1.7-0.3-1.2 0.4 0.5 0.5-0.3 0.6-0.2zm16.1 0.4c0.4 0 0.9 0.1 1.2 0.3 0.8 0.4 1.3 1.4 1 2.3-0.2 0.9-1 1.6-1.9 2-0.4 0.3-0.9 0.4-1.1 0.9-0.1 0.3 2.5 0.2 2.9 0.2 0 0.4 0.1 1-0.4 1.1-1.4-0.1-2.9-0.1-4.4-0.1 0-1.1 0.7-2.1 1.7-2.6 0.7-0.5 1.5-0.9 1.8-1.7 0.2-0.4-0.1-0.9-0.4-1.1-0.4-0.3-1.1-0.2-1.3 0.3-0.2 0.4-0.4 0.9-0.8 0.9-0.3 0-0.9 0-0.7-0.5 0.1-0.5 0.3-1.1 0.8-1.5 0.4-0.4 1-0.5 1.5-0.5zm5.7 0.1c0.2 0 0.5 0 0.7 0.1 0.7 0.2 1.2 0.8 1.4 1.4 0.6 1.4 0.5 3.2-0.4 4.4-0.4 0.5-1 0.9-1.6 0.9-1.2 0-2.2-1.1-2.4-2.2-0.3-1.3-0.2-2.8 0.7-3.9 0.4-0.5 1-0.8 1.6-0.8 0 0 0.1 0 0.1 0zm16.1 0.6c-0.1 0-0.2 0.1-0.3 0.4-0.2 0.6-0.3 1.3-0.1 1.9 0.5-0.2 0.5-0.9 0.6-1.4 0.1-0.3-0.1-0.8-0.3-0.8zm-16.1 0.5c-0.3 0-0.7 0.3-0.8 0.5-0.2 0.4-0.2 0.9-0.3 1.3-0.1 0.9 0 1.9 0.5 2.6l0.2 0.1c0.5 0.2 0.9-0.2 1.1-0.7 0.2-0.6 0.2-1.3 0.2-1.9 0-0.7-0.1-1.4-0.7-1.9-0.1-0.1-0.2-0.1-0.3-0.1zm14.4 0.5v5.9l-0.4 0.6v-4.1c-0.4 0.7-0.9 0.9-0.6-0.1 0.6-0.7 0.5-1.7 1-2.4zm-34.8 0.1c0 0 0 0 0 0 0.4 0 0.7 0.7 0.9 1.1 0.1 0.3 0.5 1.7 0.2 1.4 0 0-0.1-0.1-0.1-0.1l0.2 0.3c-0.4-0.4-0.6-1-0.4-0.8-0.2-0.3-0.3-0.6-0.4-0.9 0 0.1-0.1 0.2-0.2 0.3-0.1 0.3-0.1 0.7-0.1 1 0-0.2 0.1-0.2 0.3-0.1 0.8 1.2 1.2 2.8 0.7 4.2l-0.2 0.1c-1-0.6-1.1-1.9-1.3-2.9-0.2-1.2-0.1-2.4 0.2-3.6 0.1-0.1 0.2-0.1 0.2-0.1 0 0 0 0 0 0zm0 0c0 0 0 0.1 0 0.1 0 0 0-0.1 0-0.1zm0.2 3c-0.4 0.4-0.2 1.2 0 1.8 0.1 0.5 0.7 1 0.6 0.1 0-0.5 0-1.1-0.3-1.6-0.1-0.1-0.2-0.2-0.3-0.3zm6.4 6.7 10.9 11.9 10.9-11.9zm-2.1 0-5.2 0.5 6.2 4c-0.2-0.3-0.5-0.6-0.7-0.8-0.5-0.7-1-1.3-1.8-1.6-0.8-0.6-0.4-0.5 0.3-0.2-0.1-0.2-0.1-0.3 0-0.3 0.2 0 0.8 0.4 0.9 0.6l2.4 3.1 6.3 4zm26 0-4.1 4.5c0.6-0.3 1.1-0.8 1.7-1.2 0.2-0.1 0.4-0.2 0.4-0.2 0.2 0-0.5 0.7-0.7 1-0.9 1-1.6 2.2-2.8 2.8L41.3 53.4c-0.2 0.1-0.6 0.3-0.8 0.4l-3.9 4.3 7.2-4.6c0.5-0.7 0.2-0.5-0.5-0.1l-1.1 0.6c1.1-1.3 2.6-2.3 3.9-3.5 0.3-0.1 0.9-0.5 1.1-0.6 0.1 0 0 0.1-0.3 0.4l-1.2 1.5c1-0.7 0.1 0.4-0.4 0.5-0.1 0.1-0.1 0.2-0.2 0.3l5.3-3.4zM29.7 50.5c0.1 0 0.3 0 0.4 0v4.2H28.8V51.8c-0.5-0.1-1 0.2-1.5 0-0.4-0.3 0.1-0.7 0.4-0.6 0.3 0 0.7 0 0.9-0.3 0.3-0.3 0.7-0.4 1.1-0.4zm3.2 0.1c0 0 0.1 0 0.1 0 0.3 0.1 0.6 0 0.9 0h2.5c0.1 0.3 0.1 0.8-0.3 0.8-0.4 0-0.8 0-1.1 0-0.5 0-0.9-0.2-1.4 0-0.3 0.2-0.4 0.8 0.1 0.6 0.3-0.1 0.7-0.2 1-0.1 0.7 0.1 1.5 0.3 1.9 0.9 0.2 0.3 0.3 0.7 0.1 1-0.3 0.6-1.1 0.8-1.8 0.9-0.2 0-0.5 0.1-0.7 0.1-0.7-0.1-1.5-0.1-2-0.7-0.3-0.2-0.3-0.7 0.2-0.6 0.3 0 0.8 0 1 0.3 0.3 0.4 0.9 0.3 1.3 0.2 0.3 0 0.7-0.2 0.7-0.6 0.1-0.4-0.3-0.7-0.7-0.8-0.6-0.2-1.1 0.1-1.7 0.2-0.3 0.1-0.9 0-0.9-0.4 0.1-0.4 0.3-0.8 0.3-1.2 0-0.3 0.2-0.7 0.5-0.7zm12.9 0.5c0 0-0.7 0.6-1 0.8l-1.5 1.3c0.8-0.4 1.6-0.9 2.2-1.7 0.2-0.3 0.3-0.4 0.3-0.4zm-24 1.4c0.2 0 0.7 0.5 0.9 0.7l2.5 3c-0.7-0.2-1.3-0.7-1.7-1.3-0.6-0.7-1.1-1.6-2.1-1.9-0.9-0.5-0.5-0.6 0.2-0.2 0-0.2 0-0.3 0.1-0.3z" style="fill:#808080;stroke-width:0.1"/></svg>
