<?xml version="1.0" encoding="UTF-8" standalone="no"?>
<svg
   xmlns:dc="http://purl.org/dc/elements/1.1/"
   xmlns:cc="http://creativecommons.org/ns#"
   xmlns:rdf="http://www.w3.org/1999/02/22-rdf-syntax-ns#"
   xmlns:svg="http://www.w3.org/2000/svg"
   xmlns="http://www.w3.org/2000/svg"
   width="24"
   height="17"
   viewBox="0 0 6.3499999 4.4979167"
   version="1.1"
   id="svg18270">
  <defs
     id="defs18264" />
  <metadata
     id="metadata18267">
    <rdf:RDF>
      <cc:Work
         rdf:about="">
        <dc:format>image/svg+xml</dc:format>
        <dc:type
           rdf:resource="http://purl.org/dc/dcmitype/StillImage" />
        <dc:title></dc:title>
      </cc:Work>
    </rdf:RDF>
  </metadata>
  <g
     id="layer1"
     transform="translate(86.214412,-67.024211)">
    <ellipse
       style="opacity:1;fill:#000000;fill-opacity:1;stroke:#000000;stroke-width:0.14094442;stroke-miterlimit:4;stroke-dasharray:none;stroke-dashoffset:0;stroke-opacity:1"
       id="path19416"
       cx="-82.089775"
       cy="69.320457"
       rx="0.76869154"
       ry="0.77266657" />
    <path
       style="font-variant:normal;font-weight:500;font-stretch:normal;font-size:4.50003529px;font-family:'Scala Sans LF';-inkscape-font-specification:ScalaSans-BoldLF;writing-mode:lr-tb;fill:#9c9a9b;fill-opacity:1;fill-rule:nonzero;stroke:none;stroke-width:0.36729231"
       d="m -85.806006,70.656199 q 0.07088,-0.03677 0.144712,-0.04322 0.07274,-0.0068 0.140112,0.01465 0.08366,0.02665 0.150503,0.0875 0.06612,0.06122 0.125417,0.176017 l 0.07338,0.142056 0.39737,-0.20611 0.07338,0.142058 -1.066096,0.55297 -0.149723,-0.289855 q -0.04966,-0.09615 -0.06766,-0.171406 -0.01871,-0.07489 -0.01104,-0.144377 0.0094,-0.08216 0.05312,-0.146723 0.04344,-0.06529 0.136517,-0.113565 z m 0.07992,0.145942 q -0.05513,0.0286 -0.08593,0.06913 -0.03081,0.04054 -0.03619,0.09337 -0.0044,0.04595 0.0093,0.09526 0.01259,0.04896 0.04742,0.116406 l 0.07264,0.140623 0.42601,-0.220965 -0.0619,-0.119817 q -0.04447,-0.0861 -0.0873,-0.132107 -0.04355,-0.04564 -0.09462,-0.06191 -0.05178,-0.01589 -0.09678,-0.0099 -0.04536,0.0053 -0.09262,0.02984 z"
       id="path18241" />
    <path
       style="font-variant:normal;font-weight:500;font-stretch:normal;font-size:4.49997044px;font-family:'Scala Sans LF';-inkscape-font-specification:ScalaSans-BoldLF;writing-mode:lr-tb;fill:#9c9a9b;fill-opacity:1;fill-rule:nonzero;stroke:none;stroke-width:0.36729228"
       d="m -84.959502,69.285588 -0.01177,0.207285 -0.499312,0.374496 -0.01278,0.225031 0.476498,0.02717 -0.009,0.159699 -1.198491,-0.06835 0.01911,-0.336336 q 0.0061,-0.108886 0.02479,-0.18065 0.01781,-0.07181 0.05733,-0.127819 0.04476,-0.06299 0.109603,-0.09571 0.06409,-0.03357 0.159868,-0.02811 0.129588,0.0074 0.213611,0.07772 0.08322,0.07029 0.120983,0.187347 z m -0.882449,0.324321 q -0.05152,-0.0029 -0.09201,0.01335 -0.04125,0.01544 -0.071,0.05583 -0.02532,0.03336 -0.03687,0.08043 -0.01237,0.04704 -0.01603,0.111563 l -0.01067,0.18793 0.452352,0.0258 0.0092,-0.161312 q 0.0043,-0.07582 -0.0054,-0.133012 -0.01047,-0.05724 -0.04445,-0.09882 -0.03174,-0.03823 -0.07425,-0.05765 -0.04327,-0.02025 -0.110874,-0.02411 z"
       id="path18219" />
    <path
       style="font-variant:normal;font-weight:500;font-stretch:normal;font-size:4.49998999px;font-family:'Scala Sans LF';-inkscape-font-specification:ScalaSans-BoldLF;writing-mode:lr-tb;fill:#9c9a9b;fill-opacity:1;fill-rule:nonzero;stroke:none;stroke-width:0.36729231"
       d="m -85.220026,68.116844 q 0.108868,-0.0054 0.22372,0.03908 0.11536,0.04388 0.229894,0.138351 0.114532,0.09447 0.179794,0.200611 0.06515,0.105007 0.07993,0.210325 0.01573,0.109239 -0.01708,0.214014 -0.0323,0.104149 -0.114788,0.204577 -0.08044,0.09793 -0.178899,0.151699 -0.09795,0.05314 -0.205685,0.05845 -0.107735,0.0053 -0.222476,-0.03806 -0.114227,-0.04399 -0.229381,-0.13897 -0.11329,-0.09345 -0.17833,-0.197314 -0.06566,-0.104384 -0.08264,-0.214652 -0.01591,-0.105204 0.01832,-0.212989 0.03475,-0.108409 0.113652,-0.204467 0.08198,-0.0998 0.180035,-0.151804 0.09794,-0.05314 0.203928,-0.05885 z m 0.348059,0.305942 q -0.180515,-0.14889 -0.344849,-0.148408 -0.164954,-3.3e-5 -0.280232,0.14031 -0.116305,0.141592 -0.08456,0.303801 0.03164,0.161067 0.21215,0.309959 0.182379,0.150428 0.347116,0.148186 0.164108,-0.0027 0.277852,-0.141229 0.113742,-0.138473 0.08438,-0.299762 -0.02948,-0.162429 -0.211855,-0.312857 z"
       id="path18224" />
    <path
       style="font-variant:normal;font-weight:500;font-stretch:normal;font-size:4.50003052px;font-family:'Scala Sans LF';-inkscape-font-specification:ScalaSans-BoldLF;writing-mode:lr-tb;fill:#9c9a9b;fill-opacity:1;fill-rule:nonzero;stroke:none;stroke-width:0.36729228"
       d="m -83.76694,67.49893 -0.583883,0.166547 0.0927,0.326347 0.501689,-0.143102 0.03885,0.136754 -0.501689,0.143102 0.158257,0.557118 -0.153531,0.04379 -0.328653,-1.156972 0.737412,-0.210341 z"
       id="path18229" />
    <path
       style="font-variant:normal;font-weight:500;font-stretch:normal;font-size:4.50004148px;font-family:'Scala Sans LF';-inkscape-font-specification:ScalaSans-BoldLF;writing-mode:lr-tb;fill:#9c9a9b;fill-opacity:1;fill-rule:nonzero;stroke:none;stroke-width:0.36729228"
       d="m -81.504929,68.292712 -0.787776,-0.07031 0.106492,-1.198193 0.787776,0.07031 -0.01259,0.141627 -0.628774,-0.05611 -0.02918,0.328315 0.628776,0.05611 -0.01258,0.141626 -0.628774,-0.05611 -0.03955,0.444997 0.628776,0.05611 z"
       id="path18232" />
    <path
       d="m -82.105589,70.264905 c -0.52872,0 -0.958742,-0.430913 -0.958742,-0.960728 0,-0.529816 0.430022,-0.960729 0.958742,-0.960729 0.529088,0 0.959111,0.430913 0.959111,0.960729 0,0.529815 -0.430023,0.960728 -0.959111,0.960728 m 0,-1.714824 c -0.414977,0 -0.752537,0.33789 -0.752537,0.754096 0,0.415837 0.33756,0.754096 0.752537,0.754096 0.414979,0 0.752905,-0.338259 0.752905,-0.754096 0,-0.416206 -0.337926,-0.754096 -0.752905,-0.754096"
       style="fill:#000000;fill-opacity:1;fill-rule:nonzero;stroke:none;stroke-width:0.36729228"
       id="path17723" />
    <path
       style="font-variant:normal;font-weight:500;font-stretch:normal;font-size:4.49999809px;font-family:'Scala Sans LF';-inkscape-font-specification:ScalaSans-BoldLF;writing-mode:lr-tb;fill:#9c9a9b;fill-opacity:1;fill-rule:nonzero;stroke:none;stroke-width:0.36729228"
       d="m -80.155202,68.013406 -0.704167,0.167531 -0.09523,0.729875 -0.137814,-0.123105 0.08453,-0.587927 -0.579205,0.146038 -0.12999,-0.116117 0.711467,-0.169667 0.09455,-0.721825 0.137212,0.122568 -0.08324,0.580415 0.571302,-0.14444 z"
       id="path18235" />
    <path
       style="font-variant:normal;font-weight:500;font-stretch:normal;font-size:4.5000124px;font-family:'Scala Sans LF';-inkscape-font-specification:ScalaSans-BoldLF;writing-mode:lr-tb;fill:#9c9a9b;fill-opacity:1;fill-rule:nonzero;stroke:none;stroke-width:0.36729228"
       d="m -80.149916,69.425207 q -0.07834,0.01532 -0.151,7.2e-4 -0.07172,-0.01396 -0.130351,-0.05353 -0.07281,-0.04914 -0.119893,-0.126362 -0.04628,-0.07738 -0.07098,-0.204244 l -0.03058,-0.156998 -0.439161,0.08588 -0.03058,-0.156998 1.178216,-0.2304 0.06238,0.320339 q 0.02069,0.106251 0.01685,0.183552 -0.003,0.07715 -0.02991,0.141663 -0.03197,0.07622 -0.09213,0.125845 -0.06,0.05042 -0.162867,0.07054 z m -0.03577,-0.162568 q 0.06093,-0.01191 0.101864,-0.04215 0.04094,-0.03022 0.06093,-0.07941 0.01712,-0.04286 0.01784,-0.09403 0.0017,-0.05054 -0.01286,-0.125069 l -0.03027,-0.155412 -0.470812,0.09207 0.02578,0.132418 q 0.01853,0.09515 0.04673,0.15137 0.02899,0.05606 0.07344,0.08606 0.04524,0.02984 0.09011,0.03671 0.04502,0.0077 0.09725,-0.0025 z"
       id="path18238" />
    <path
       d="m -83.562855,71.131731 c 0.60247,0 1.090463,-0.489005 1.090463,-1.092355 0,-0.603351 -0.487993,-1.091988 -1.090463,-1.091988 -0.602103,0 -1.090098,0.488637 -1.090098,1.091988 0,0.60335 0.487995,1.092355 1.090098,1.092355"
       style="fill:#000000;fill-opacity:1;fill-rule:nonzero;stroke:none;stroke-width:0.36729228"
       id="path18199" />
    <path
       d="m -83.562855,71.263505 c -0.673652,0 -1.221452,-0.548935 -1.221452,-1.223981 0,-0.675047 0.5478,-1.223982 1.221452,-1.223982 0.674019,0 1.221819,0.548935 1.221819,1.223982 0,0.675046 -0.5478,1.223981 -1.221819,1.223981 m 0,-2.184709 c -0.528721,0 -0.958742,0.430544 -0.958742,0.960728 0,0.529816 0.430021,0.960727 0.958742,0.960727 0.528721,0 0.959109,-0.430911 0.959109,-0.960727 0,-0.530184 -0.430388,-0.960728 -0.959109,-0.960728"
       style="fill:#0a0a0d;fill-opacity:1;fill-rule:nonzero;stroke:none;stroke-width:0.36729228"
       id="path18211" />
  </g>
</svg>
