<?xml version="1.0" encoding="UTF-8"?>
<svg width="870" height="1133" version="1.1" viewBox="0 0 870 1133" xml:space="preserve" xmlns="http://www.w3.org/2000/svg" xmlns:cc="http://creativecommons.org/ns#" xmlns:dc="http://purl.org/dc/elements/1.1/" xmlns:rdf="http://www.w3.org/1999/02/22-rdf-syntax-ns#"><metadata><rdf:RDF><cc:Work rdf:about=""><dc:format>image/svg+xml</dc:format><dc:type rdf:resource="http://purl.org/dc/dcmitype/StillImage"/><dc:title/></cc:Work></rdf:RDF></metadata><defs><clipPath id="f"><path d="m0 0h612v792h-612z"/></clipPath><clipPath id="l"><path d="m0 0h612v792h-612z"/></clipPath><clipPath id="m"><path d="m0 0h612v792h-612z"/></clipPath><clipPath id="n"><path d="m0 0h612v792h-612z"/></clipPath><clipPath id="d"><path d="m0 0h612v792h-612z"/></clipPath><clipPath id="e"><path d="m0 0h612v792h-612z"/></clipPath><clipPath id="g"><path d="m0 0h612v792h-612z"/></clipPath><clipPath id="h"><path d="m0 0h612v792h-612z"/></clipPath><clipPath id="i"><path d="m0 0h612v792h-612z"/></clipPath><clipPath id="j"><path d="m0 0h612v792h-612z"/></clipPath><clipPath id="k"><path d="m0 0h612v792h-612z"/></clipPath><clipPath id="a"><path d="m0 0h612v792h-612z"/></clipPath><clipPath id="b"><path d="m0 0h612v792h-612z"/></clipPath><clipPath id="c"><path d="m182.16 747.72h50.849v23.4h-50.849z"/></clipPath></defs><g transform="matrix(1.4809 0 0 -1.4809 124.84 62.193)"><path d="m0 0 23.255-1.74-23.255-1.739-23.252 1.739zm139.2-6.519 23.254-1.739 23.256 1.739-23.256 1.74zm114.29 16.991 22.286 1.666-27.48 2.055 42.048 3.143-37.447 2.801 51.877 3.877-88.338 6.608 23.736 1.773-43.337 3.242-38.505-2.88-17.318 2.255 42.488 3.174-34.049 2.547-23.73-1.773-27.549 2.06-25.751-1.927 26.164-1.958-28.828-2.156-28.823 2.156 16.707 1.25-19.96 1.493-63.818-4.771 22.614-1.691-71.71-5.36 42.231-3.158-22.286-1.666 27.478-2.055-42.046-3.142 37.445-2.802-51.877-3.877 71.294-5.333-32.644-2.442 34.46-2.575 8.912 0.666 25.916-1.939 38.506 2.88 17.299-2.252-44.872-3.356 61.598-4.604 13.469 1.006-24.247 1.814 34.625 2.59 24.268-1.815 15.887 1.188 22.622-1.691 63.818 4.77-22.612 1.691 71.709 5.359z" fill="#deddde"/></g><g transform="matrix(1.4809 0 0 -1.4809 271.06 136.63)"><path d="m0 0 18.891-1.413-18.891-1.413-18.888 1.413zm113.07-5.295 18.89-1.413 18.891 1.413-18.891 1.413zm92.841 13.801 18.103 1.354-22.322 1.669 34.156 2.553-30.419 2.275 42.14 3.15-71.757 5.367 19.281 1.441-35.203 2.633-31.278-2.339-14.067 1.831 34.513 2.579-27.659 2.069-19.275-1.441-22.379 1.674-20.917-1.565 21.252-1.591-23.416-1.751-23.413 1.751 13.571 1.015-16.214 1.213-51.839-3.875 18.369-1.374-58.251-4.354 34.305-2.565-18.103-1.353 22.321-1.67-34.155-2.552 30.417-2.276-42.14-3.15 57.912-4.331-26.516-1.984 27.992-2.092 7.239 0.541 21.052-1.575 31.278 2.34 14.052-1.83-36.449-2.726 50.036-3.74 10.941 0.818-19.696 1.473 28.126 2.104 19.713-1.474 12.905 0.964 18.376-1.373 51.84 3.875-18.368 1.373 58.25 4.354z" fill="#deddde"/></g><g transform="matrix(1.4809 0 0 -1.4809 567.61 66.294)"><path d="m0 0 15.58-1.166-15.58-1.164-15.578 1.164zm93.256-4.367 15.579-1.165 15.58 1.165-15.58 1.166zm76.57 11.383 14.93 1.116-18.41 1.376 28.17 2.106-25.087 1.877 34.754 2.597-59.181 4.427 15.902 1.188-29.034 2.172-25.796-1.929-11.602 1.51 28.465 2.127-22.812 1.706-15.897-1.188-18.457 1.38-17.252-1.291 17.529-1.312-19.313-1.444-19.31 1.444 11.193 0.838-13.372 1-42.755-3.196 15.15-1.133-48.042-3.591 28.293-2.116-14.931-1.116 18.409-1.376-28.168-2.106 25.086-1.877-34.755-2.597 47.763-3.573-21.869-1.636 23.086-1.725 5.97 0.446 17.363-1.299 25.796 1.93 11.59-1.509-30.062-2.249 41.268-3.084 9.023 0.674-16.245 1.216 23.197 1.735 16.259-1.216 10.643 0.795 15.156-1.133 42.754 3.196-15.148 1.133 48.041 3.591z" fill="#deddde"/></g><g transform="matrix(1.4809 0 0 -1.4809 -13.939 1144.4)"><g clip-path="url(#f)"><g transform="translate(394.4,656.84)"><path d="m0 0c-2.097 2.648-4.057 6.123-4.057 9.912v0.729h-65.045c-6.136 1.753-12.622 2.657-19.294 2.657-6.671 0-13.157-0.904-19.295-2.657h-65.418v-0.729c0-3.789-1.96-7.264-4.057-9.912h1.85c0.463 0.639 0.915 1.305 1.33 2.019h1.448l0.225 2e-3 0.076 0.21c0.069 0.194 1.789 4.766 9.402 4.766h45.4c-2.72-1.275-5.344-2.73-7.846-4.376l0.35-0.532c1.166 0.767 2.362 1.486 3.578 2.172h65.916c1.225-0.69 2.43-1.417 3.604-2.19l0.35 0.533c-2.51 1.652-5.144 3.114-7.874 4.393h45.129c7.613 0 9.333-4.572 9.403-4.766l0.076-0.212h1.569c0.414-0.714 0.867-1.38 1.33-2.019zm-172 6.997h4.633c-3.71-1.168-5.054-3.599-5.385-4.342h-0.892c0.721 1.345 1.301 2.801 1.644 4.342m59.82 2.186c-0.981-0.358-1.95-0.739-2.909-1.143-0.206 0.242-0.502 0.402-0.845 0.402-0.511 0-0.925-0.346-1.064-0.81h-54.856c0.089 0.509 0.151 1.025 0.181 1.551zm40.61 1.458h-33.653c5.396 1.335 11.041 2.021 16.826 2.021 5.786 0 11.431-0.686 16.827-2.021m5.032-1.458c1.551-0.517 3.076-1.093 4.575-1.723-7e-3 -0.049-0.03-0.094-0.03-0.146 0-0.622 0.504-1.127 1.127-1.127 0.351 0 0.65 0.167 0.857 0.417 1.157-0.532 2.291-1.106 3.41-1.707h-63.595c1.118 0.6 2.251 1.172 3.406 1.704 0.207-0.248 0.506-0.414 0.854-0.414 0.623 0 1.128 0.505 1.128 1.127 0 0.051-0.023 0.095-0.029 0.143 1.5 0.631 3.028 1.207 4.582 1.726zm61.224-1.551h-54.488c-0.14 0.464-0.553 0.81-1.064 0.81-0.341 0-0.636-0.159-0.843-0.399-0.957 0.403-1.926 0.782-2.905 1.14h59.118c0.031-0.526 0.093-1.042 0.182-1.551m1.789-4.977h-0.788c-0.331 0.743-1.674 3.174-5.385 4.342h4.53c0.343-1.541 0.922-2.997 1.643-4.342m-173.58-627.25c2.073-2.637 3.994-6.081 3.994-9.831v-0.729h65.419c6.137-1.754 12.623-2.658 19.294-2.658 6.672 0 13.158 0.904 19.297 2.658h65.042v0.729c0 3.75 1.921 7.194 3.994 9.831h-1.848c-0.442-0.615-0.872-1.256-1.269-1.939l-1.673-1e-3 -0.076-0.21c-0.069-0.195-1.79-4.766-9.402-4.766h-45.026c2.721 1.275 5.345 2.73 7.847 4.375l-0.35 0.533c-1.166-0.768-2.362-1.487-3.578-2.173h-65.916c-1.225 0.691-2.43 1.418-3.604 2.19l-0.35-0.532c2.51-1.653 5.144-3.114 7.873-4.393h-45.504c-7.612 0-9.332 4.571-9.402 4.766l-0.076 0.211h-1.569c-0.397 0.683-0.827 1.324-1.27 1.939zm171.94-6.916h-4.633c3.71 1.167 5.053 3.599 5.385 4.341h0.891c-0.721-1.344-1.3-2.8-1.643-4.341m-59.445-2.186c0.98 0.357 1.95 0.738 2.909 1.142 0.206-0.241 0.502-0.402 0.845-0.402 0.51 0 0.924 0.346 1.063 0.81h54.482c-0.089-0.508-0.151-1.025-0.182-1.55zm-40.61-1.458h33.653c-5.396-1.335-11.041-2.022-16.827-2.022-5.785 0-11.43 0.687-16.826 2.022m-5.032 1.458c-1.551 0.516-3.077 1.092-4.574 1.722 6e-3 0.05 0.029 0.094 0.029 0.146 0 0.622-0.504 1.128-1.128 1.128-0.349 0-0.649-0.168-0.856-0.418-1.157 0.533-2.291 1.106-3.41 1.707h63.595c-1.118-0.6-2.251-1.171-3.406-1.704-0.207 0.248-0.506 0.415-0.854 0.415-0.624 0-1.128-0.506-1.128-1.128 0-0.051 0.022-0.094 0.029-0.143-1.501-0.631-3.029-1.206-4.582-1.725zm-61.599 1.55h54.863c0.138-0.464 0.553-0.81 1.063-0.81 0.342 0 0.637 0.16 0.844 0.399 0.957-0.403 1.926-0.782 2.905-1.139h-59.494c-0.03 0.525-0.092 1.042-0.181 1.55m-1.79 4.977h0.789c0.331-0.742 1.674-3.174 5.385-4.341h-4.53c-0.343 1.541-0.923 2.997-1.644 4.341" fill="#e0e0e0"/></g></g></g><g transform="matrix(1.4809 0 0 -1.4809 578.98 174.94)"><path d="m0 0-4.776 4.776h-179.57l-4.776-4.776v-620.05l4.776-4.776h179.57l4.776 4.776z" fill="#fff"/></g><g transform="matrix(1.4809 0 0 -1.4809 578.98 174.94)"><path d="m0 0-4.776 4.776h-179.57l-4.776-4.776v-620.05l4.776-4.776h179.57l4.776 4.776z" fill="none" stroke="#deddde" stroke-miterlimit="10"/></g><g transform="matrix(1.4809 0 0 -1.4809 -13.939 1144.4)"><g clip-path="url(#l)"><g transform="translate(205.58,656.84)"><path d="m0 0c-2.097 2.648-4.057 6.123-4.057 9.912v0.729h-65.045c-6.136 1.753-12.622 2.657-19.294 2.657-6.671 0-13.157-0.904-19.295-2.657h-65.418v-0.729c0-3.789-1.96-7.264-4.057-9.912h1.85c0.463 0.639 0.915 1.305 1.33 2.019h1.448l0.225 2e-3 0.076 0.21c0.069 0.194 1.789 4.766 9.402 4.766h45.4c-2.72-1.275-5.344-2.73-7.846-4.376l0.35-0.532c1.166 0.767 2.362 1.486 3.578 2.172h65.916c1.225-0.69 2.43-1.417 3.604-2.19l0.35 0.533c-2.51 1.652-5.144 3.114-7.874 4.393h45.129c7.613 0 9.333-4.572 9.403-4.766l0.076-0.212h1.569c0.414-0.714 0.867-1.38 1.33-2.019zm-172 6.997h4.633c-3.71-1.168-5.054-3.599-5.385-4.342h-0.892c0.721 1.345 1.301 2.801 1.644 4.342m59.82 2.186c-0.981-0.358-1.95-0.739-2.909-1.143-0.206 0.242-0.502 0.402-0.845 0.402-0.511 0-0.925-0.346-1.064-0.81h-54.856c0.089 0.509 0.151 1.025 0.181 1.551zm40.61 1.458h-33.653c5.396 1.335 11.041 2.021 16.826 2.021 5.786 0 11.431-0.686 16.827-2.021m5.032-1.458c1.551-0.517 3.076-1.093 4.575-1.723-7e-3 -0.049-0.03-0.094-0.03-0.146 0-0.622 0.504-1.127 1.127-1.127 0.351 0 0.65 0.167 0.857 0.417 1.157-0.532 2.291-1.106 3.41-1.707h-63.595c1.118 0.6 2.251 1.172 3.406 1.704 0.207-0.248 0.506-0.414 0.854-0.414 0.623 0 1.128 0.505 1.128 1.127 0 0.051-0.023 0.095-0.029 0.143 1.5 0.631 3.028 1.207 4.582 1.726zm61.224-1.551h-54.488c-0.14 0.464-0.553 0.81-1.064 0.81-0.341 0-0.636-0.159-0.843-0.399-0.957 0.403-1.926 0.782-2.905 1.14h59.118c0.031-0.526 0.093-1.042 0.182-1.551m1.789-4.977h-0.788c-0.331 0.743-1.674 3.174-5.385 4.342h4.53c0.343-1.541 0.922-2.997 1.643-4.342m-173.58-627.25c2.073-2.637 3.994-6.081 3.994-9.831v-0.729h65.419c6.137-1.754 12.623-2.658 19.294-2.658 6.672 0 13.158 0.904 19.297 2.658h65.042v0.729c0 3.75 1.921 7.194 3.994 9.831h-1.848c-0.442-0.615-0.872-1.256-1.269-1.939l-1.673-1e-3 -0.076-0.21c-0.069-0.195-1.79-4.766-9.402-4.766h-45.026c2.721 1.275 5.345 2.73 7.847 4.375l-0.35 0.533c-1.166-0.768-2.362-1.487-3.578-2.173h-65.916c-1.225 0.691-2.43 1.418-3.604 2.19l-0.35-0.532c2.51-1.653 5.144-3.114 7.873-4.393h-45.504c-7.612 0-9.332 4.571-9.402 4.766l-0.076 0.211h-1.569c-0.397 0.683-0.827 1.324-1.27 1.939zm171.94-6.916h-4.633c3.71 1.167 5.053 3.599 5.385 4.341h0.891c-0.721-1.344-1.3-2.8-1.643-4.341m-59.445-2.186c0.98 0.357 1.95 0.738 2.909 1.142 0.206-0.241 0.502-0.402 0.845-0.402 0.51 0 0.924 0.346 1.063 0.81h54.482c-0.089-0.508-0.151-1.025-0.182-1.55zm-40.61-1.458h33.653c-5.396-1.335-11.041-2.022-16.827-2.022-5.785 0-11.43 0.687-16.826 2.022m-5.032 1.458c-1.551 0.516-3.077 1.092-4.574 1.722 6e-3 0.05 0.029 0.094 0.029 0.146 0 0.622-0.504 1.128-1.128 1.128-0.349 0-0.649-0.168-0.856-0.418-1.157 0.533-2.291 1.106-3.41 1.707h63.595c-1.118-0.6-2.251-1.171-3.406-1.704-0.207 0.248-0.506 0.415-0.854 0.415-0.624 0-1.128-0.506-1.128-1.128 0-0.051 0.022-0.094 0.029-0.143-1.501-0.631-3.029-1.206-4.582-1.725zm-61.599 1.55h54.863c0.138-0.464 0.553-0.81 1.063-0.81 0.342 0 0.637 0.16 0.844 0.399 0.957-0.403 1.926-0.782 2.905-1.139h-59.494c-0.03 0.525-0.092 1.042-0.181 1.55m-1.79 4.977h0.789c0.331-0.742 1.674-3.174 5.385-4.341h-4.53c-0.343 1.541-0.923 2.997-1.644 4.341" fill="#e0e0e0"/></g></g></g><g transform="matrix(1.4809 0 0 -1.4809 299.35 174.94)"><path d="m0 0-4.776 4.776h-179.57l-4.776-4.776v-620.05l4.776-4.776h179.57l4.776 4.776z" fill="#fff"/></g><g transform="matrix(1.4809 0 0 -1.4809 299.35 174.94)"><path d="m0 0-4.776 4.776h-179.57l-4.776-4.776v-620.05l4.776-4.776h179.57l4.776 4.776z" fill="none" stroke="#deddde" stroke-miterlimit="10"/></g><g transform="matrix(1.4809 0 0 -1.4809 -13.939 1144.4)"><g clip-path="url(#m)"><g transform="translate(583.58,656.84)"><path d="m0 0c-2.097 2.648-4.057 6.123-4.057 9.912v0.729h-65.045c-6.136 1.753-12.622 2.657-19.294 2.657-6.671 0-13.157-0.904-19.295-2.657h-65.418v-0.729c0-3.789-1.96-7.264-4.057-9.912h1.85c0.463 0.639 0.915 1.305 1.33 2.019h1.448l0.225 2e-3 0.076 0.21c0.069 0.194 1.789 4.766 9.402 4.766h45.4c-2.72-1.275-5.344-2.73-7.846-4.376l0.35-0.532c1.166 0.767 2.362 1.486 3.578 2.172h65.916c1.225-0.69 2.43-1.417 3.604-2.19l0.35 0.533c-2.51 1.652-5.144 3.114-7.874 4.393h45.129c7.613 0 9.333-4.572 9.403-4.766l0.076-0.212h1.569c0.414-0.714 0.867-1.38 1.33-2.019zm-172 6.997h4.633c-3.71-1.168-5.054-3.599-5.385-4.342h-0.892c0.721 1.345 1.301 2.801 1.644 4.342m59.82 2.186c-0.981-0.358-1.95-0.739-2.909-1.143-0.206 0.242-0.502 0.402-0.845 0.402-0.511 0-0.925-0.346-1.064-0.81h-54.856c0.089 0.509 0.151 1.025 0.181 1.551zm40.61 1.458h-33.653c5.396 1.335 11.041 2.021 16.826 2.021 5.786 0 11.431-0.686 16.827-2.021m5.032-1.458c1.551-0.517 3.076-1.093 4.575-1.723-7e-3 -0.049-0.03-0.094-0.03-0.146 0-0.622 0.504-1.127 1.127-1.127 0.351 0 0.65 0.167 0.857 0.417 1.157-0.532 2.291-1.106 3.41-1.707h-63.595c1.118 0.6 2.251 1.172 3.406 1.704 0.207-0.248 0.506-0.414 0.854-0.414 0.623 0 1.128 0.505 1.128 1.127 0 0.051-0.023 0.095-0.029 0.143 1.5 0.631 3.028 1.207 4.582 1.726zm61.224-1.551h-54.488c-0.14 0.464-0.553 0.81-1.064 0.81-0.341 0-0.636-0.159-0.843-0.399-0.957 0.403-1.926 0.782-2.905 1.14h59.118c0.031-0.526 0.093-1.042 0.182-1.551m1.789-4.977h-0.788c-0.331 0.743-1.674 3.174-5.385 4.342h4.53c0.343-1.541 0.922-2.997 1.643-4.342m-173.58-627.25c2.073-2.637 3.994-6.081 3.994-9.831v-0.729h65.419c6.137-1.754 12.623-2.658 19.294-2.658 6.672 0 13.158 0.904 19.297 2.658h65.042v0.729c0 3.75 1.921 7.194 3.994 9.831h-1.848c-0.442-0.615-0.872-1.256-1.269-1.939l-1.673-1e-3 -0.076-0.21c-0.069-0.195-1.79-4.766-9.402-4.766h-45.026c2.721 1.275 5.345 2.73 7.847 4.375l-0.35 0.533c-1.166-0.768-2.362-1.487-3.578-2.173h-65.916c-1.225 0.691-2.43 1.418-3.604 2.19l-0.35-0.532c2.51-1.653 5.144-3.114 7.873-4.393h-45.504c-7.612 0-9.332 4.571-9.402 4.766l-0.076 0.211h-1.569c-0.397 0.683-0.827 1.324-1.27 1.939zm171.94-6.916h-4.633c3.71 1.167 5.053 3.599 5.385 4.341h0.891c-0.721-1.344-1.3-2.8-1.643-4.341m-59.445-2.186c0.98 0.357 1.95 0.738 2.909 1.142 0.206-0.241 0.502-0.402 0.845-0.402 0.51 0 0.924 0.346 1.063 0.81h54.482c-0.089-0.508-0.151-1.025-0.182-1.55zm-40.61-1.458h33.653c-5.396-1.335-11.041-2.022-16.827-2.022-5.785 0-11.43 0.687-16.826 2.022m-5.032 1.458c-1.551 0.516-3.077 1.092-4.574 1.722 6e-3 0.05 0.029 0.094 0.029 0.146 0 0.622-0.504 1.128-1.128 1.128-0.349 0-0.649-0.168-0.856-0.418-1.157 0.533-2.291 1.106-3.41 1.707h63.595c-1.118-0.6-2.251-1.171-3.406-1.704-0.207 0.248-0.506 0.415-0.854 0.415-0.624 0-1.128-0.506-1.128-1.128 0-0.051 0.022-0.094 0.029-0.143-1.501-0.631-3.029-1.206-4.582-1.725zm-61.599 1.55h54.863c0.138-0.464 0.553-0.81 1.063-0.81 0.342 0 0.637 0.16 0.844 0.399 0.957-0.403 1.926-0.782 2.905-1.139h-59.494c-0.03 0.525-0.092 1.042-0.181 1.55m-1.79 4.977h0.789c0.331-0.742 1.674-3.174 5.385-4.341h-4.53c-0.343 1.541-0.923 2.997-1.644 4.341" fill="#e0e0e0"/></g></g></g><g transform="matrix(1.4809 0 0 -1.4809 859.16 174.94)"><path d="m0 0-4.776 4.776h-179.57l-4.776-4.776v-620.05l4.776-4.776h179.57l4.776 4.776z" fill="#fff"/></g><g transform="matrix(1.4809 0 0 -1.4809 859.16 174.94)"><path d="m0 0-4.776 4.776h-179.57l-4.776-4.776v-620.05l4.776-4.776h179.57l4.776 4.776z" fill="none" stroke="#deddde" stroke-miterlimit="10"/></g><g transform="matrix(1.4809 0 0 -1.4809 -13.939 1144.4)"><g clip-path="url(#n)"><g transform="translate(214.58,431.91)"><path d="m0 0c0 0.076-0.019 0.15-0.022 0.227h5.709l-0.755 0.491c-3.781 0-6.35 2.005-6.35 2.005l-1e-3 -4e-3c-0.541 0.38-1.197 0.607-1.908 0.607v-6.653c0.821 0 1.562 0.309 2.143 0.802 0.71 0.478 2.999 1.838 6.116 1.838l0.755 0.492h-5.707c4e-3 0.065 0.02 0.128 0.02 0.195" fill="#e0e0e0"/></g><g transform="translate(211.25,434.43)"><path d="m0 0c-0.171 0-0.338-0.018-0.5-0.05v-4.949c0.162-0.033 0.329-0.051 0.5-0.051 1.395 0 2.525 1.131 2.525 2.526 0 1.394-1.13 2.524-2.525 2.524" fill="#fff"/></g><g transform="translate(397.05,431.91)"><path d="m0 0c0 0.076 0.019 0.15 0.022 0.227h-5.709l0.755 0.491c3.781 0 6.35 2.005 6.35 2.005l1e-3 -4e-3c0.541 0.38 1.197 0.607 1.908 0.607v-6.653c-0.821 0-1.562 0.309-2.143 0.802-0.71 0.478-2.999 1.838-6.116 1.838l-0.755 0.492h5.707c-4e-3 0.065-0.02 0.128-0.02 0.195" fill="#e0e0e0"/></g><g transform="translate(400.38,434.43)"><path d="m0 0c0.171 0 0.338-0.018 0.5-0.05v-4.949c-0.162-0.033-0.329-0.051-0.5-0.051-1.395 0-2.525 1.131-2.525 2.526 0 1.394 1.13 2.524 2.525 2.524" fill="#fff"/></g><g transform="translate(214.58,206.36)"><path d="m0 0c0 0.076-0.019 0.15-0.022 0.227h5.709l-0.755 0.491c-3.781 0-6.35 2.005-6.35 2.005l-1e-3 -4e-3c-0.541 0.38-1.197 0.607-1.908 0.607v-6.653c0.821 0 1.562 0.309 2.143 0.802 0.71 0.478 2.999 1.838 6.116 1.838l0.755 0.492h-5.707c4e-3 0.065 0.02 0.128 0.02 0.195" fill="#e0e0e0"/></g><g transform="translate(211.25,208.89)"><path d="m0 0c-0.171 0-0.338-0.018-0.5-0.05v-4.949c0.162-0.033 0.329-0.051 0.5-0.051 1.395 0 2.525 1.131 2.525 2.526 0 1.394-1.13 2.524-2.525 2.524" fill="#fff"/></g><g transform="translate(397.05,206.36)"><path d="m0 0c0 0.076 0.019 0.15 0.022 0.227h-5.709l0.755 0.491c3.781 0 6.35 2.005 6.35 2.005l1e-3 -4e-3c0.541 0.38 1.197 0.607 1.908 0.607v-6.653c-0.821 0-1.562 0.309-2.143 0.802-0.71 0.478-2.999 1.838-6.116 1.838l-0.755 0.492h5.707c-4e-3 0.065-0.02 0.128-0.02 0.195" fill="#e0e0e0"/></g><g transform="translate(400.38,208.89)"><path d="m0 0c0.171 0 0.338-0.018 0.5-0.05v-4.949c-0.162-0.033-0.329-0.051-0.5-0.051-1.395 0-2.525 1.131-2.525 2.526 0 1.394 1.13 2.524 2.525 2.524" fill="#fff"/></g><g transform="translate(25.765,261.99)"><path d="m0 0c0 0.076-0.019 0.15-0.022 0.227h5.709l-0.755 0.491c-3.781 0-6.35 2.005-6.35 2.005l-1e-3 -4e-3c-0.541 0.38-1.197 0.607-1.908 0.607v-6.653c0.821 0 1.562 0.309 2.143 0.802 0.71 0.478 2.999 1.838 6.116 1.838l0.755 0.492h-5.707c4e-3 0.065 0.02 0.128 0.02 0.195" fill="#e0e0e0"/></g><g transform="translate(22.438,264.52)"><path d="m0 0c-0.171 0-0.338-0.018-0.5-0.05v-4.949c0.162-0.033 0.329-0.051 0.5-0.051 1.395 0 2.525 1.131 2.525 2.526 0 1.394-1.13 2.524-2.525 2.524" fill="#fff"/></g><g transform="translate(208.24,261.99)"><path d="m0 0c0 0.076 0.019 0.15 0.022 0.227h-5.709l0.755 0.491c3.781 0 6.35 2.005 6.35 2.005l1e-3 -4e-3c0.541 0.38 1.197 0.607 1.908 0.607v-6.653c-0.821 0-1.562 0.309-2.143 0.802-0.71 0.478-2.999 1.838-6.116 1.838l-0.755 0.492h5.707c-4e-3 0.065-0.02 0.128-0.02 0.195" fill="#e0e0e0"/></g><g transform="translate(211.56,264.52)"><path d="m0 0c0.171 0 0.338-0.018 0.5-0.05v-4.949c-0.162-0.033-0.329-0.051-0.5-0.051-1.395 0-2.525 1.131-2.525 2.526 0 1.394 1.13 2.524 2.525 2.524" fill="#fff"/></g><g transform="translate(25.765,501.97)"><path d="m0 0c0 0.076-0.019 0.15-0.022 0.227h5.709l-0.755 0.491c-3.781 0-6.35 2.005-6.35 2.005l-1e-3 -4e-3c-0.541 0.38-1.197 0.607-1.908 0.607v-6.653c0.821 0 1.562 0.309 2.143 0.802 0.71 0.478 2.999 1.838 6.116 1.838l0.755 0.492h-5.707c4e-3 0.065 0.02 0.128 0.02 0.195" fill="#e0e0e0"/></g><g transform="translate(22.438,504.49)"><path d="m0 0c-0.171 0-0.338-0.018-0.5-0.05v-4.949c0.162-0.033 0.329-0.051 0.5-0.051 1.395 0 2.525 1.131 2.525 2.526 0 1.394-1.13 2.524-2.525 2.524" fill="#fff"/></g><g transform="translate(208.24,501.97)"><path d="m0 0c0 0.076 0.019 0.15 0.022 0.227h-5.709l0.755 0.491c3.781 0 6.35 2.005 6.35 2.005l1e-3 -4e-3c0.541 0.38 1.197 0.607 1.908 0.607v-6.653c-0.821 0-1.562 0.309-2.143 0.802-0.71 0.478-2.999 1.838-6.116 1.838l-0.755 0.492h5.707c-4e-3 0.065-0.02 0.128-0.02 0.195" fill="#e0e0e0"/></g><g transform="translate(211.56,504.49)"><path d="m0 0c0.171 0 0.338-0.018 0.5-0.05v-4.949c-0.162-0.033-0.329-0.051-0.5-0.051-1.395 0-2.525 1.131-2.525 2.526 0 1.394 1.13 2.524 2.525 2.524" fill="#fff"/></g><g transform="translate(403.76,488.78)"><path d="m0 0c0 0.076-0.019 0.15-0.022 0.227h5.709l-0.755 0.491c-3.781 0-6.35 2.005-6.35 2.005l-1e-3 -4e-3c-0.541 0.38-1.197 0.607-1.908 0.607v-6.653c0.821 0 1.562 0.309 2.143 0.802 0.71 0.478 2.999 1.838 6.116 1.838l0.755 0.492h-5.707c4e-3 0.065 0.02 0.128 0.02 0.195" fill="#e0e0e0"/></g><g transform="translate(400.44,491.3)"><path d="m0 0c-0.171 0-0.338-0.018-0.5-0.05v-4.949c0.162-0.033 0.329-0.051 0.5-0.051 1.395 0 2.525 1.131 2.525 2.526 0 1.394-1.13 2.524-2.525 2.524" fill="#fff"/></g><g transform="translate(586.24,488.78)"><path d="m0 0c0 0.076 0.019 0.15 0.022 0.227h-5.709l0.755 0.491c3.781 0 6.35 2.005 6.35 2.005l1e-3 -4e-3c0.541 0.38 1.197 0.607 1.908 0.607v-6.653c-0.821 0-1.562 0.309-2.143 0.802-0.71 0.478-2.999 1.838-6.116 1.838l-0.755 0.492h5.707c-4e-3 0.065-0.02 0.128-0.02 0.195" fill="#e0e0e0"/></g><g transform="translate(589.56,491.3)"><path d="m0 0c0.171 0 0.338-0.018 0.5-0.05v-4.949c-0.162-0.033-0.329-0.051-0.5-0.051-1.395 0-2.525 1.131-2.525 2.526 0 1.394 1.13 2.524 2.525 2.524" fill="#fff"/></g><g transform="translate(403.76,318.71)"><path d="m0 0c0 0.076-0.019 0.15-0.022 0.227h5.709l-0.755 0.491c-3.781 0-6.35 2.005-6.35 2.005l-1e-3 -4e-3c-0.541 0.38-1.197 0.607-1.908 0.607v-6.653c0.821 0 1.562 0.309 2.143 0.802 0.71 0.478 2.999 1.838 6.116 1.838l0.755 0.492h-5.707c4e-3 0.065 0.02 0.128 0.02 0.195" fill="#e0e0e0"/></g><g transform="translate(400.44,321.24)"><path d="m0 0c-0.171 0-0.338-0.018-0.5-0.05v-4.949c0.162-0.033 0.329-0.051 0.5-0.051 1.395 0 2.525 1.131 2.525 2.526 0 1.394-1.13 2.524-2.525 2.524" fill="#fff"/></g><g transform="translate(586.24,318.71)"><path d="m0 0c0 0.076 0.019 0.15 0.022 0.227h-5.709l0.755 0.491c3.781 0 6.35 2.005 6.35 2.005l1e-3 -4e-3c0.541 0.38 1.197 0.607 1.908 0.607v-6.653c-0.821 0-1.562 0.309-2.143 0.802-0.71 0.478-2.999 1.838-6.116 1.838l-0.755 0.492h5.707c-4e-3 0.065-0.02 0.128-0.02 0.195" fill="#e0e0e0"/></g><g transform="translate(589.56,321.24)"><path d="m0 0c0.171 0 0.338-0.018 0.5-0.05v-4.949c-0.162-0.033-0.329-0.051-0.5-0.051-1.395 0-2.525 1.131-2.525 2.526 0 1.394 1.13 2.524 2.525 2.524" fill="#fff"/></g><g transform="translate(403.76,177.15)"><path d="m0 0c0 0.076-0.019 0.15-0.022 0.227h5.709l-0.755 0.491c-3.781 0-6.35 2.005-6.35 2.005l-1e-3 -4e-3c-0.541 0.38-1.197 0.607-1.908 0.607v-6.653c0.821 0 1.562 0.309 2.143 0.802 0.71 0.478 2.999 1.838 6.116 1.838l0.755 0.492h-5.707c4e-3 0.065 0.02 0.128 0.02 0.195" fill="#e0e0e0"/></g><g transform="translate(400.44,179.67)"><path d="m0 0c-0.171 0-0.338-0.018-0.5-0.05v-4.949c0.162-0.033 0.329-0.051 0.5-0.051 1.395 0 2.525 1.131 2.525 2.526 0 1.394-1.13 2.524-2.525 2.524" fill="#fff"/></g><g transform="translate(586.24,177.15)"><path d="m0 0c0 0.076 0.019 0.15 0.022 0.227h-5.709l0.755 0.491c3.781 0 6.35 2.005 6.35 2.005l1e-3 -4e-3c0.541 0.38 1.197 0.607 1.908 0.607v-6.653c-0.821 0-1.562 0.309-2.143 0.802-0.71 0.478-2.999 1.838-6.116 1.838l-0.755 0.492h5.707c-4e-3 0.065-0.02 0.128-0.02 0.195" fill="#e0e0e0"/></g><g transform="translate(589.56,179.67)"><path d="m0 0c0.171 0 0.338-0.018 0.5-0.05v-4.949c-0.162-0.033-0.329-0.051-0.5-0.051-1.395 0-2.525 1.131-2.525 2.526 0 1.394 1.13 2.524 2.525 2.524" fill="#fff"/></g></g></g><g transform="matrix(1.4809 0 0 -1.4809 281.76 222.41)"><path d="m0 0 4.83 5.83v14.482l-4.83 5.83h-158.19v-26.142z" fill="#fff"/></g><g transform="matrix(1.4809 0 0 -1.4809 281.76 470.81)"><path d="m0 0 4.83 5.83v14.482l-4.83 5.83h-158.19v-26.142z" fill="#fff"/></g><g transform="matrix(1.4809 0 0 -1.4809 281.76 809.31)"><path d="m0 0 4.83 5.83v14.482l-4.83 5.83h-158.19v-26.142z" fill="#fff"/></g><g transform="matrix(1.4809 0 0 -1.4809 561.65 222.41)"><path d="m0 0 4.83 5.83v14.482l-4.83 5.83h-158.19v-26.142z" fill="#fff"/></g><g transform="matrix(1.4809 0 0 -1.4809 838.77 222.41)"><path d="m0 0 4.83 5.83v14.482l-4.83 5.83h-158.19v-26.142z" fill="#fff"/></g><g transform="matrix(1.4809 0 0 -1.4809 838.77 473.8)"><path d="m0 0 4.83 5.83v14.482l-4.83 5.83h-158.19v-26.142z" fill="#fff"/></g><g transform="matrix(1.4809 0 0 -1.4809 838.77 725.27)"><path d="m0 0 4.83 5.83v14.482l-4.83 5.83h-158.19v-26.142z" fill="#fff"/></g><g transform="matrix(1.4809 0 0 -1.4809 838.77 933.69)"><path d="m0 0 4.83 5.83v14.482l-4.83 5.83h-158.19v-26.142z" fill="#fff"/></g><g transform="matrix(1.4809 0 0 -1.4809 561.65 556.49)"><path d="m0 0 4.83 5.83v14.482l-4.83 5.83h-158.19v-26.142z" fill="#fff"/></g><g transform="matrix(1.4809 0 0 -1.4809 561.65 892.01)"><path d="m0 0 4.83 5.83v14.482l-4.83 5.83h-158.19v-26.142z" fill="#fff"/></g><g transform="matrix(1.4809 0 0 -1.4809 36.436 469.19)"><path d="m0 0v23.954l2.7 2.54 10.216-8.861v-11.314l-10.216-8.861z" fill="#fff"/></g><g transform="matrix(1.4809 0 0 -1.4809 36.436 807.67)"><path d="m0 0v23.954l2.7 2.54 10.216-8.861v-11.314l-10.216-8.861z" fill="#fff"/></g><g transform="matrix(1.4809 0 0 -1.4809 316.35 220.79)"><path d="m0 0v23.954l2.7 2.54 10.216-8.861v-11.314l-10.216-8.861z" fill="#fff"/></g><g transform="matrix(1.4809 0 0 -1.4809 593.46 220.79)"><path d="m0 0v23.954l2.7 2.54 10.216-8.861v-11.314l-10.216-8.861z" fill="#fff"/></g><g transform="matrix(1.4809 0 0 -1.4809 593.46 472.18)"><path d="m0 0v23.954l2.7 2.54 10.216-8.861v-11.314l-10.216-8.861z" fill="#fff"/></g><g transform="matrix(1.4809 0 0 -1.4809 593.46 723.67)"><path d="m0 0v23.954l2.7 2.54 10.216-8.861v-11.314l-10.216-8.861z" fill="#fff"/></g><g transform="matrix(1.4809 0 0 -1.4809 593.46 932.06)"><path d="m0 0v23.954l2.7 2.54 10.216-8.861v-11.314l-10.216-8.861z" fill="#fff"/></g><g transform="matrix(1.4809 0 0 -1.4809 316.35 554.86)"><path d="m0 0v23.954l2.7 2.54 10.216-8.861v-11.314l-10.216-8.861z" fill="#fff"/></g><g transform="matrix(1.4809 0 0 -1.4809 316.35 890.41)"><path d="m0 0v23.954l2.7 2.54 10.216-8.861v-11.314l-10.216-8.861z" fill="#fff"/></g><g transform="matrix(1.4809 0 0 -1.4809 40.508 432.94)"><path d="m0 0 8.675-7.525v-9.945l-8.675-7.524-1.241 1.168v22.658zm-0.082 4.042-4.159-3.913v-25.251l4.159-3.915 11.757 10.198v12.683z" fill="#deddde"/></g><g transform="matrix(1.4809 0 0 -1.4809 40.508 771.44)"><path d="m0 0 8.675-7.525v-9.945l-8.675-7.524-1.241 1.168v22.658zm-0.082 4.042-4.159-3.913v-25.251l4.159-3.915 11.757 10.198v12.683z" fill="#deddde"/></g><g transform="matrix(1.4809 0 0 -1.4809 320.38 184.55)"><path d="m0 0 8.675-7.525v-9.945l-8.675-7.524-1.241 1.168v22.658zm-0.082 4.042-4.159-3.913v-25.251l4.159-3.915 11.757 10.198v12.683z" fill="#deddde"/></g><g transform="matrix(1.4809 0 0 -1.4809 597.52 184.55)"><path d="m0 0 8.675-7.525v-9.945l-8.675-7.524-1.241 1.168v22.658zm-0.082 4.042-4.159-3.913v-25.251l4.159-3.915 11.757 10.198v12.683z" fill="#deddde"/></g><g transform="matrix(1.4809 0 0 -1.4809 597.52 435.94)"><path d="m0 0 8.675-7.525v-9.945l-8.675-7.524-1.241 1.168v22.658zm-0.082 4.042-4.159-3.913v-25.251l4.159-3.915 11.757 10.198v12.683z" fill="#deddde"/></g><g transform="matrix(1.4809 0 0 -1.4809 597.52 687.4)"><path d="m0 0 8.675-7.525v-9.945l-8.675-7.524-1.241 1.168v22.658zm-0.082 4.042-4.159-3.913v-25.251l4.159-3.915 11.757 10.198v12.683z" fill="#deddde"/></g><g transform="matrix(1.4809 0 0 -1.4809 597.52 895.83)"><path d="m0 0 8.675-7.525v-9.945l-8.675-7.524-1.241 1.168v22.658zm-0.082 4.042-4.159-3.913v-25.251l4.159-3.915 11.757 10.198v12.683z" fill="#deddde"/></g><g transform="matrix(1.4809 0 0 -1.4809 320.38 518.62)"><path d="m0 0 8.675-7.525v-9.945l-8.675-7.524-1.241 1.168v22.658zm-0.082 4.042-4.159-3.913v-25.251l4.159-3.915 11.757 10.198v12.683z" fill="#deddde"/></g><g transform="matrix(1.4809 0 0 -1.4809 320.38 854.14)"><path d="m0 0 8.675-7.525v-9.945l-8.675-7.524-1.241 1.168v22.658zm-0.082 4.042-4.159-3.913v-25.251l4.159-3.915 11.757 10.198v12.683z" fill="#deddde"/></g><g transform="matrix(1.4809 0 0 -1.4809 36.436 220.79)"><path d="m0 0v23.954l2.7 2.54 10.216-8.861v-11.314l-10.216-8.861z" fill="#fff"/></g><g transform="matrix(1.4809 0 0 -1.4809 40.508 184.55)"><path d="m0 0 8.675-7.525v-9.945l-8.675-7.524-1.241 1.168v22.658zm-0.082 4.042-4.159-3.913v-25.251l4.159-3.915 11.757 10.198v12.683z" fill="#deddde"/></g><g transform="matrix(1.4809 0 0 -1.4809 -13.939 1144.4)"><g clip-path="url(#d)"><g transform="translate(55.001,733.92)"><path d="m0 0v12.239h7.56s3.8-1.8 9.64 6.481h12.68l5.04 3.548s4.32 6.171 8.28 6.171 19.72 7.201 19.72 7.201l17 3.724 20.16-5.885 10.72-4.32s16.37-6.088 14.12-15.959c0 0 1.96 8.22-14.12 13.8 0 0 8.72-6.361 6.92-10.08 0 0 9.36-6.451 10.8-11.687 0 0 20.88-6.191 29.16 7.967 0 0-2.95-6.691-5.76-7.967 0 0 19.44-11.591 38.16 7.967 0 0-13.48-11.761-12.6-16.621l-53.28 1.62s0.552 23.517-32.664 25.561-36.816-14.58-34.116-20.88z" fill="#fff"/></g><g transform="translate(149.72,735.35)"><path d="m0 0s6.08 22.32 26.96-3.24c0 0-14.569 28.44-30.144 3.96z" fill="#fff"/></g><g transform="translate(188.75,728.45)"><path d="m0 0c0.793-3.441 1.211-7.177 1.159-11.244 0 0 0.629 4.801-1.159 11.244m-98.202 15.517-0.168-0.317-0.312-0.177 0.318-0.168 0.178-0.311 0.166 0.317 0.313 0.176-0.318 0.169zm-20.039-13.435-0.301-0.572-0.562-0.32 0.572-0.301 0.319-0.563 0.301 0.572 0.563 0.32-0.572 0.302zm21.964 15.613-0.418-0.795-0.78-0.442 0.794-0.418 0.444-0.78 0.417 0.794 0.779 0.443-0.793 0.418zm-2.998-3.2-0.158-0.303-0.296-0.167 0.301-0.159 0.168-0.295 0.159 0.301 0.295 0.169-0.3 0.158zm-24.405-12.702-0.27-0.512-0.504-0.286 0.513-0.269 0.285-0.503 0.269 0.511 0.504 0.287-0.512 0.269zm1.865-0.931-0.2-0.383-0.377-0.212 0.383-0.201 0.213-0.378 0.201 0.384 0.376 0.213-0.383 0.201zm-0.304-1.464-0.148-0.282-0.279-0.159 0.284-0.149 0.157-0.28 0.151 0.284 0.279 0.159-0.284 0.15zm145.74 4.895c5e-3 -0.302 0.254-0.544 0.557-0.538 0.302 4e-3 0.543 0.254 0.538 0.556s-0.254 0.544-0.557 0.538c-0.302-4e-3 -0.543-0.254-0.538-0.556m5.675 4.655c0.252 4e-3 0.453 0.211 0.449 0.463s-0.212 0.454-0.464 0.448c-0.252-3e-3 -0.453-0.211-0.449-0.463s0.212-0.452 0.464-0.448m-3.341-2.245c0.504 8e-3 0.906 0.423 0.898 0.927s-0.423 0.907-0.928 0.898c-0.504-8e-3 -0.905-0.423-0.897-0.927s0.423-0.906 0.927-0.898m29.388 17.084c0.251 4e-3 0.452 0.212 0.448 0.464s-0.212 0.452-0.463 0.448c-0.253-3e-3 -0.454-0.211-0.449-0.463 3e-3 -0.253 0.211-0.453 0.464-0.449m-3.591-3.708c0.554 9e-3 0.995 0.466 0.986 1.019-8e-3 0.555-0.465 0.997-1.019 0.988-0.555-9e-3 -0.996-0.465-0.987-1.02 8e-3 -0.554 0.465-0.996 1.02-0.987m-3.508-3.251c3e-3 -0.252 0.212-0.453 0.463-0.449 0.253 5e-3 0.454 0.212 0.45 0.463-4e-3 0.253-0.212 0.454-0.464 0.449-0.252-4e-3 -0.453-0.211-0.449-0.463m0.706 1.477 0.281 0.532 0.522 0.297-0.532 0.28-0.297 0.523-0.281-0.532-0.522-0.298 0.532-0.28zm2.583-1.697 0.313 0.595 0.585 0.331-0.595 0.313-0.332 0.585-0.313-0.595-0.584-0.332 0.594-0.313zm21.601 16.185-0.332 0.585-0.313-0.595-0.584-0.332 0.595-0.313 0.332-0.584 0.312 0.594 0.585 0.332zm-4.675-1.77-0.531-1.009-0.992-0.564 1.009-0.531 0.564-0.992 0.531 1.009 0.993 0.564-1.01 0.531zm2.236-2.821-0.177-0.337-0.331-0.188 0.337-0.176 0.188-0.332 0.177 0.337 0.331 0.188-0.337 0.176zm-2.172-1.129-0.365-0.695-0.683-0.387 0.695-0.365 0.387-0.684 0.366 0.696 0.681 0.386-0.694 0.366zm-32.15-22.279c-6.338 0.814-14.773 1.427-20.657 0.068-1.43-0.692-3.845-2.194-2.627-4.024 1.152-1.73 16.85 0.106 23.284 3.956m28.385 29.367s2.313-7.629 1.124-13.124c0 0 0.1 5.111-1.887 3.802-1.986-1.309-10.085-8.559-3.82-12.108 0 0-14.049-0.409-14.999-9.369 0 0-3.184 0.665-7.668 1.28-0.585-0.411-1.302-0.831-2.19-1.256-8.328-3.98-29.522-8.493-23.421 0.081-2.791-1.57-4.056-4.132-2.551-8.165 0 0-4.883 8.5 7.852 11.078 0 0-2.94 1.231-1.316 2.351 0 0 11.85-4.3 22.581-2.212 1.09 1.412 0.875 3.01-1.447 4.743 0 0 3.604-1.916 2.423-4.535 2.93 0.684 5.746 1.869 8.176 3.793 0 0-3.815-1.156-5.633-1.55 0 0 3.401 1.283 7.666 4.343l-0.283 0.498-1.388 0.731 1.363 0.774 0.732 1.389 0.774-1.364 0.861-0.453c4.899 3.976 10.357 10.176 13.051 19.273m-75.087-32.497c-0.01-0.029-0.019-0.056-0.03-0.082 0.012 0.026 0.02 0.055 0.03 0.082m7e-3 0.019c-3e-3 -7e-3 -4e-3 -0.013-7e-3 -0.019 3e-3 6e-3 5e-3 0.012 7e-3 0.019m-0.037-0.101c-0.081-0.194-0.175-0.387-0.284-0.579 0 0 0.146 0.206 0.284 0.579m-66.024 4.784-0.319-0.606-0.596-0.339 0.607-0.319 0.338-0.596 0.319 0.606 0.595 0.339-0.605 0.32zm-2.66 2.897-0.282-0.536-0.527-0.298 0.535-0.282 0.3-0.527 0.282 0.537 0.526 0.298-0.535 0.282zm-3.031-1.169-0.445-0.847-0.833-0.474 0.848-0.443 0.471-0.833 0.446 0.848 0.832 0.471-0.847 0.446zm77.244 9.083 0.353 0.669 0.657 0.374-0.669 0.352-0.374 0.658-0.352-0.67-0.657-0.373 0.669-0.353zm26.631-3.736-0.212-0.402-0.394-0.224 0.402-0.212 0.224-0.395 0.211 0.403 0.395 0.224-0.402 0.211zm-6.557 1.489 0.536 1.019 1.002 0.57-1.019 0.536-0.569 1.002-0.537-1.019-1.001-0.569 1.019-0.538zm-5.325-2.933 0.268 0.51 0.501 0.284-0.51 0.268-0.284 0.501-0.269-0.51-0.5-0.285 0.509-0.267zm-3.15 0.877 0.34-0.18 0.19-0.336 0.18 0.341 0.335 0.191-0.341 0.18-0.191 0.335-0.179-0.341zm-0.66 1.286 0.402 0.763 0.749 0.426-0.763 0.402-0.426 0.75-0.401-0.763-0.751-0.427 0.764-0.402zm-3.164-1.896 0.537 1.019 1.001 0.569-1.019 0.537-0.57 1.002-0.536-1.019-1.001-0.57 1.019-0.536zm-32.708 11.459 0.459 0.873 0.857 0.487-0.873 0.46-0.487 0.856-0.459-0.871-0.858-0.489 0.873-0.458zm-2.138 3.876-0.335-0.635-0.624-0.356 0.635-0.334 0.355-0.624 0.334 0.636 0.624 0.355-0.635 0.335zm15.805-3.3c-1.538 4.643-8.805 11.889-38.168 14.541 0 0 7.663-0.716 17.288-3.885-0.071-0.165-0.114-0.346-0.111-0.537 0.011-0.722 0.605-1.297 1.327-1.285 0.599 0.01 1.075 0.428 1.221 0.98 6.023-2.182 12.596-5.321 18.443-9.814m-16.589 7.25c-2e-3 0.12-0.101 0.216-0.221 0.214-0.121-2e-3 -0.217-0.101-0.215-0.221 2e-3 -0.121 0.102-0.217 0.222-0.215s0.216 0.101 0.214 0.222m-1.103 0.853c-2e-3 0.18-0.151 0.324-0.331 0.322-0.181-3e-3 -0.325-0.153-0.322-0.333s0.151-0.324 0.332-0.32c0.181 3e-3 0.325 0.151 0.321 0.331m-5.151 2.096c-5e-3 0.299-0.253 0.54-0.554 0.534-0.301-4e-3 -0.54-0.252-0.535-0.552 5e-3 -0.301 0.252-0.541 0.552-0.536 0.302 5e-3 0.542 0.252 0.537 0.554m-1.179-1.217c-4e-3 0.3-0.252 0.54-0.553 0.535-0.301-4e-3 -0.54-0.253-0.535-0.552 4e-3 -0.302 0.252-0.541 0.552-0.537 0.301 5e-3 0.541 0.253 0.536 0.554m-2.534 1.81c-4e-3 0.3-0.252 0.541-0.553 0.536s-0.541-0.253-0.536-0.554 0.253-0.54 0.554-0.535c0.3 4e-3 0.541 0.252 0.535 0.553m-2.543 0.176-0.474 0.25-0.264 0.465-0.249-0.473-0.465-0.265 0.473-0.25 0.264-0.464 0.249 0.472zm-2.459-0.619-0.473 0.248-0.264 0.465-0.249-0.474-0.465-0.262 0.473-0.249 0.264-0.465 0.249 0.472zm10.304 2.597s-10.868 4.0287-28.158 2.4427c0 0-3.866-1.9777-9.522-2.3957 0 0-11.477-4.105-17.156-9.859 0 0 2.576 2.327 5.093 1.605 0 0 24.311 18.578 49.743 8.207m-53.647-15.313c1.096 1.096 7.929 7.839 7.929 7.839s-7.582-5.673-12.498-6.353c-2.181-0.303-6.391-0.024-11.465-0.659-3.118-1.563-7.855-3.814-8.048-3.176-0.113 0.372 0.294 1.004 0.83 1.635-4.533-1.416-9.29-3.861-13.663-8.134 0 0-2.412-1.533-1.822-1.871 0.591-0.337 1.18-0.675 1.18-0.675s-3.036-2.022-2.194-3.287c0.845-1.264 8.113 4.162 8.113 4.162s-3.257-3.557-5.903-5.394c-2.648-1.837-2.565-4.703-2.077-6.423 0 0 0.978-4.034 5.918-2.92l-0.299 0.525-0.955 0.503 0.938 0.533 0.504 0.954 0.533-0.937 0.955-0.502-0.939-0.534-0.216-0.411c0.279 0.08 0.559 0.162 0.861 0.273 6.157 2.275 13.778 0.484 17.016-0.208 3.236-0.693 7.302 4.061 9.31 8.832 0 0 0.978-0.151 2.277 1.516 0 0-1.046-2.596-0.373-3.608 0.675-1.012 2.226-0.271 2.547 0.454l-0.724 1.417s2.445 1.265 3.981 4.333c1.535 3.069 0.044 6.239-1.145 7.529 0 0 1.164-1.088 1.585-1.721 0 0 0.686 5.498 3.604 7.917 0 0-5.339-3.338-6.182-3.716-0.844-0.38-0.675 1.011 0.422 2.107m-5.689-22.315c-5.784-6.391-11.164-3.875-11.164-3.875 5.417-4.843 11.164 3.875 11.164 3.875m-2.129 26.945c4e-3 -0.24 0.202-0.43 0.443-0.427 0.24 4e-3 0.432 0.201 0.428 0.442-4e-3 0.24-0.201 0.433-0.442 0.429s-0.433-0.202-0.429-0.444m3.008 2.555c6e-3 -0.361 0.304-0.649 0.664-0.643 0.361 5e-3 0.648 0.303 0.642 0.663-6e-3 0.361-0.302 0.649-0.663 0.643s-0.648-0.303-0.643-0.663m1.327-1.286c4e-3 -0.241 0.203-0.433 0.443-0.427 0.241 3e-3 0.432 0.2 0.429 0.441-4e-3 0.241-0.202 0.433-0.443 0.428-0.24-3e-3 -0.433-0.201-0.429-0.442m2.038 1.993c-0.361-7e-3 -0.649-0.302-0.643-0.663s0.303-0.65 0.664-0.643c0.361 5e-3 0.649 0.303 0.642 0.664-5e-3 0.36-0.303 0.648-0.663 0.642m-1.22 1.76 0.682-0.36 0.381-0.671 0.358 0.683 0.672 0.381-0.683 0.359-0.381 0.672-0.359-0.683zm94.098-25.063c-0.273 0.252-1.485 0.807-3.258 1.65 1.181-2.518 2.145-5.231 2.823-8.171-0.736 2.652-1.893 5.583-3.663 8.571-3.21 1.542-7.823 3.883-12.185 6.981 4.938-3.846 12.618-10.32 11.877-12.856 0 0-0.377 1.004-1.099 0.678-0.642-0.289-2.731-2.847-5.184-1.491-0.023-0.067-0.043-0.134-0.069-0.2 0.021 0.064 0.043 0.132 0.062 0.204-0.298 0.166-0.601 0.378-0.908 0.672 0 0 0.409-0.225 0.972-0.396 0.363 1.807-0.186 5.52-8.287 9.666 0 0-2.744 0.32-2.892-1.872 0 0-8.65 4.424-9.144 1.131-0.495-3.294 4.27-4.495 4.27-4.495l-9.121-0.33s-0.803 4.551 2.237 8.433c0 0-0.15-2.01 1.666-1.434 1.816 0.577 5.767 4.657 4.63 7.194 0 0 4.038-1.394 6.26-3.367 2.089-1.853 12.155-8.897 10.418-14.936 1.14-0.337 2.891-0.431 3.296 1.968 0.496 2.949-7.222 9.89-11.075 12.994-0.109 0.087-0.218 0.174-0.327 0.262-0.179 0.142-0.348 0.276-0.505 0.396 0.07-0.051 0.148-0.109 0.224-0.166-2.451 2.002-4.697 4.26-6.399 6.772 0 0 7.873-7.719 18.279-11.485-2.26 2.798-5.147 5.558-8.849 8.097-0.136-0.299-0.307-0.574-0.529-0.815 0 0 0.161 0.37 0.254 1.007-8.24 5.564-20.418 10.037-38.391 11.502 0 0-15.936 0.344-15.079-7.633 0 0-0.27-2.225 3.135-3.172 0 0-3.575 0.103-5.699 0.66 0 0 0.422 1.013-0.539 1.029-0.961 0.017-14.016-8.458-13.394-14.546 0 0 3.287-1e-3 6.36 6.135 0 0-1.504-4.433-2.347-6.457 0 0-4.201-1.482-5.128-5.023-0.929-3.541-1.84-5.025-1.84-5.025s-15.342-12.837-28.659-14.445c0 0-5.943-0.741-10.103 1.959l2.402 0.1s-9.236 1.464-13.171 7.209c-3.935 5.747-8.091 18.104-6.652 25.93 0 0 0.89-7.133 3.587-11.02 0 0 2.583 21.503 21.879 34.572 0 0-5.253-4.9367-5.13-7.5397 0 0-2.08 0.546-4.507-4.182-2.429-4.728-2.209-12.949 4.329-12.135 6.537 0.815 8.099 7.649 7.036 11.34 0 0 1.142-2.927 3.812-2.08 2.668 0.847 5.159 3.109 5.159 3.109s-1.532-5.842 8.638-3.341l-2.921 0.354s14.737 9.8387 23.25 13.262c0 0-7.198-2.7317-11.853-6.6007 0 0 23.09 12.35 46.342 7.1647 0.661-0.147 1.287-0.318 1.927-0.479l-0.084 0.043s0.191-0.058 0.534-0.156c0.614-0.158 1.22-0.32 1.814-0.491 3.922-1.022 11.772-1.4577 15.773-0.55771 0 0-3.434-1.24-2.987-2.427 0.448-1.187 7.588-3.712 7.588-3.712s-2.069-0.614-0.148-2.553l-0.039 0.02c3.247-2.99 5.132-5.962 5.588-8.32 3.892-3.11 7.423-6.842 10.211-11.313 8.504-2.673 18.456-2.454 27.137 6.614 0 0-4.356-5.856-4.021-7.085 0.336-1.23 3.352-1.399 3.352-1.399l0.861-1.799s-7.275 3.724-14.083-0.665c0 0 0.525-1.297 4.336-0.551 0 0-0.581-0.435-2.985-0.825-2.402-0.391-4.448-0.737-1.543-3.643 0 0-3.163 0.604-8.471 2.395 0 0 2.079 0.078 0.95 1.116m-20.271 12.032c0.217-0.14 0.587-0.409 1.065-0.78-0.666 0.494-1.065 0.78-1.065 0.78" fill="#231f20"/></g><g transform="translate(66.757,746.64)"><path d="m0 0s-6.538-4.643-4.737-6.253c1.8-1.61 4.642 1.421 4.642 1.421s-0.852-2.179 0-2.463c0.853-0.284 3.979 3.126 9.19 1.61 0 0-4.737-0.189-3.695-3.126l-16.769-1.042 0.19 4.358s6.537 5.305 11.179 5.495" fill="#231f20"/></g><g transform="translate(90.284,738.72)"><path d="m0 0s3.655-0.086 5.047 2.61c0 0 0.347-1.13 1.479-0.782 1.131 0.347 2.523 2.088 1.827 3.828 0 0 1.305-2.002 0.261-4.003 0 0-1.654-0.87-1.566-1.914z" fill="#231f20"/></g><g transform="translate(61.754,740.8)"><path d="m0 0s-0.97 1.973 0.78 5.035c0 0-1.048-2.912 0.375-3.562z" fill="#fff"/></g></g></g><g transform="matrix(1.4809 0 0 -1.4809 107.09 31.884)"><path d="m0 0 4.693 3.001-4.062-3.438z" fill="#fff"/></g><g transform="matrix(1.4809 0 0 -1.4809 -13.939 1144.4)"><g clip-path="url(#e)"><g transform="translate(259.42,753.06)"><path d="m0 0-1e-3 -73.258c1.048 2.516 2.098 3.565 2.098 3.565l1e-3 66.129s-1.05 1.046-2.098 3.564" fill="#fff"/></g><g transform="translate(259.42,753.06)"><path d="m0 0-1e-3 -73.258c1.048 2.516 2.098 3.565 2.098 3.565l1e-3 66.129s-1.05 1.046-2.098 3.564z" fill="none" stroke="#231f20" stroke-miterlimit="10" stroke-width="1.25"/></g></g></g><g transform="matrix(1.4809 0 0 -1.4809 32.406 67.734)"><path d="m0 0v-37.5l35.5 4.639v37.501z" fill="#fff"/></g><g transform="matrix(1.4809 0 0 -1.4809 32.406 67.734)"><path d="m0 0v-37.5l35.5 4.639v37.5z" fill="none" stroke="#231f20" stroke-miterlimit="10" stroke-width="1.375"/></g><g transform="matrix(1.4809 0 0 -1.4809 33.539 119.15)"><path d="M 0,0 34.724,4.925 M 0,32.207 34.724,36.625" fill="none" stroke="#231f20" stroke-miterlimit="10" stroke-width=".75"/></g><g transform="matrix(1.4809 0 0 -1.4809 84.964 60.866)"><path d="m0 0-24.219 3.583v-37.5l24.219-3.583z" fill="#c1c0c2"/></g><g transform="matrix(1.4809 0 0 -1.4809 84.964 60.866)"><path d="m0 0-24.219 3.583v-37.5l24.219-3.583z" fill="none" stroke="#231f20" stroke-miterlimit="10" stroke-width="1.375"/></g><g transform="matrix(1.4809 0 0 -1.4809 -13.939 1144.4)"><g clip-path="url(#g)"><g transform="translate(261.61,697.72)"><path d="m0 0c-61.753-11.25-157.29 11.25-219.04 0v37.5c61.753 11.25 157.29-11.25 219.04 0z" fill="#fff"/></g><g transform="translate(262.49,701.34)"><path d="m0 0s-20.5-8.666-114.67-0.333c-66.51 5.886-99.718 0.727-104.86-0.173m218.64 31.461s-19.872-8.038-114.04 0.295c-66.51 5.886-99.718 0.726-104.86-0.173" fill="none" stroke="#231f20" stroke-miterlimit="10" stroke-width=".75"/></g><g transform="translate(261.61,697.72)"><path d="m0 0c-61.753-11.25-157.29 11.25-219.04 0v37.5c61.753 11.25 157.29-11.25 219.04 0z" fill="none" stroke="#231f20" stroke-miterlimit="10" stroke-width="1.375"/></g><g transform="translate(575.13,733.71)"><path d="m0 0v-38.142c14.567 0.085 16.462 0 18.946 3.228v37.5c-4.659-2.474-9.473-2.549-18.946-2.586z" fill="none" stroke="#231f20" stroke-miterlimit="10" stroke-width="1.375"/></g><g transform="translate(574.52,730.88)"><path d="m0 0c16.235 0.054 17.687 1.176 19.157 2.303m-18.554-34.496c19.602-2.231 17.932 3.579 18.804 3.754" fill="none" stroke="#231f20" stroke-miterlimit="10" stroke-width=".75"/></g></g></g><path d="m838.2 128.28h-464.84v-89.806h464.84z" fill="#e0e0e0" stroke-width="4.1979"/><path d="m838.2 128.28h-464.84v-89.806h464.84z" fill="none" stroke="#231f20" stroke-miterlimit="10" stroke-width="1.8512"/><g transform="matrix(1.4809 0 0 -1.4809 -13.939 1144.4)"><g clip-path="url(#h)"><g transform="translate(261.51,738.86)"><path d="m0 0s1.067 10.333 8.401 10.333h22s7.166-2.445 20.5-2.445m-50.902-52.754s1.067-10.333 8.401-10.333h22s7.166 2.445 20.5 2.445" fill="none" stroke="#231f20" stroke-miterlimit="10" stroke-width="1.25"/></g><g transform="translate(575.41,738.86)"><path d="m0 0s-1.067 10.333-8.401 10.333h-22s-7.166-2.445-20.5-2.445m50.902-52.754s-1.067-10.333-8.401-10.333h-22s-7.166 2.445-20.5 2.445" fill="none" stroke="#231f20" stroke-miterlimit="10" stroke-width="1.25"/></g><g transform="translate(553.51,746.75)"><path d="m0 0c-5.202-0.907-11.465-1.923-17.206-1.923h-235.68c-5.741 0-12.004 1.016-17.206 1.923m0-60.641c5.202 0.908 11.465 1.923 17.206 1.923h235.68c5.741 0 12.004-1.015 17.206-1.923" fill="none" stroke="#231f20" stroke-miterlimit="10" stroke-width=".75"/></g><g transform="translate(577.51,753.06)"><path d="m0 0 1e-3 -73.258c-1.048 2.516-2.098 3.565-2.098 3.565l-1e-3 66.129s1.05 1.046 2.098 3.564" fill="#fff"/></g><g transform="translate(577.51,753.06)"><path d="m0 0 1e-3 -73.258c-1.048 2.516-2.098 3.565-2.098 3.565l-1e-3 66.129s1.05 1.046 2.098 3.564z" fill="none" stroke="#231f20" stroke-miterlimit="10" stroke-width="1.25"/></g></g></g><g transform="matrix(1.4809 0 0 -1.4809 499.9 48.44)"><path d="m0 0h-61.537l-6.337-7.977v-16.596l6.335-7.976h61.541l6.336 7.976v16.596z" fill="#fff"/></g><g transform="matrix(1.4809 0 0 -1.4809 499.9 48.44)"><path d="m0 0h-61.537l-6.337-7.977v-16.596l6.335-7.976h61.541l6.336 7.976v16.596z" fill="none" stroke="#231f20" stroke-miterlimit="10" stroke-width="1.375"/></g><g transform="matrix(1.4809 0 0 -1.4809 402.21 56.693)"><path d="m0 0v-21.724m0 3.06 6.716-8.314m-1e-3 32.549-6.716-8.313" fill="none" stroke="#231f20" stroke-miterlimit="10" stroke-width=".6"/></g><g transform="matrix(1.4809 0 0 -1.4809 -13.939 1144.4)"><g clip-path="url(#i)"><g transform="translate(280.06,723.75)"><path d="m0 0c0-0.525 0.426-0.951 0.95-0.951 0.525 0 0.95 0.426 0.95 0.951 0 0.523-0.425 0.949-0.95 0.949-0.524 0-0.95-0.426-0.95-0.949" fill="#231f20"/></g><g transform="translate(352.35,723.75)"><path d="m0 0c0-0.525-0.426-0.951-0.95-0.951-0.525 0-0.95 0.426-0.95 0.951 0 0.523 0.425 0.949 0.95 0.949 0.524 0 0.95-0.426 0.95-0.949" fill="#231f20"/></g></g></g><g transform="matrix(1.4809 0 0 -1.4809 506.46 56.693)"><path d="m0 0v-21.724m0 3.06-6.716-8.314m1e-3 32.549 6.716-8.313" fill="none" stroke="#231f20" stroke-miterlimit="10" stroke-width=".6"/></g><g transform="matrix(1.4809 0 0 -1.4809 649.05 48.44)"><path d="m0 0h-61.537l-6.337-7.977v-16.596l6.335-7.976h61.541l6.336 7.976v16.596z" fill="#fff"/></g><g transform="matrix(1.4809 0 0 -1.4809 649.05 48.44)"><path d="m0 0h-61.537l-6.337-7.977v-16.596l6.335-7.976h61.541l6.336 7.976v16.596z" fill="none" stroke="#231f20" stroke-miterlimit="10" stroke-width="1.375"/></g><g transform="matrix(1.4809 0 0 -1.4809 551.36 56.693)"><path d="m0 0v-21.724m0 3.06 6.716-8.314m-1e-3 32.549-6.716-8.313" fill="none" stroke="#231f20" stroke-miterlimit="10" stroke-width=".6"/></g><g transform="matrix(1.4809 0 0 -1.4809 -13.939 1144.4)"><g clip-path="url(#j)"><g transform="translate(380.77,723.75)"><path d="m0 0c0-0.525 0.426-0.951 0.95-0.951 0.525 0 0.95 0.426 0.95 0.951 0 0.523-0.425 0.949-0.95 0.949-0.524 0-0.95-0.426-0.95-0.949" fill="#231f20"/></g><g transform="translate(453.06,723.75)"><path d="m0 0c0-0.525-0.426-0.951-0.95-0.951-0.525 0-0.95 0.426-0.95 0.951 0 0.523 0.425 0.949 0.95 0.949 0.524 0 0.95-0.426 0.95-0.949" fill="#231f20"/></g></g></g><g transform="matrix(1.4809 0 0 -1.4809 655.6 56.693)"><path d="m0 0v-21.724m0 3.06-6.716-8.314m1e-3 32.549 6.716-8.313" fill="none" stroke="#231f20" stroke-miterlimit="10" stroke-width=".6"/></g><g transform="matrix(1.4809 0 0 -1.4809 802.77 48.44)"><path d="m0 0h-61.537l-6.337-7.977v-16.596l6.335-7.976h61.541l6.336 7.976v16.596z" fill="#fff"/></g><g transform="matrix(1.4809 0 0 -1.4809 802.77 48.44)"><path d="m0 0h-61.537l-6.337-7.977v-16.596l6.335-7.976h61.541l6.336 7.976v16.596z" fill="none" stroke="#231f20" stroke-miterlimit="10" stroke-width="1.375"/></g><g transform="matrix(1.4809 0 0 -1.4809 705.08 56.693)"><path d="m0 0v-21.724m0 3.06 6.716-8.314m-1e-3 32.549-6.716-8.313" fill="none" stroke="#231f20" stroke-miterlimit="10" stroke-width=".6"/></g><g transform="matrix(1.4809 0 0 -1.4809 -13.939 1144.4)"><g clip-path="url(#k)"><g transform="translate(484.57,723.75)"><path d="m0 0c0-0.525 0.426-0.951 0.95-0.951 0.525 0 0.95 0.426 0.95 0.951 0 0.523-0.425 0.949-0.95 0.949-0.524 0-0.95-0.426-0.95-0.949" fill="#231f20"/></g><g transform="translate(556.86,723.75)"><path d="m0 0c0-0.525-0.426-0.951-0.95-0.951-0.525 0-0.95 0.426-0.95 0.951 0 0.523 0.425 0.949 0.95 0.949 0.524 0 0.95-0.426 0.95-0.949" fill="#231f20"/></g></g></g><g transform="matrix(1.4809 0 0 -1.4809 809.32 56.693)"><path d="m0 0v-21.724m0 3.06-6.716-8.314m1e-3 32.549 6.716-8.313" fill="none" stroke="#231f20" stroke-miterlimit="10" stroke-width=".6"/></g><g transform="matrix(1.4809 0 0 -1.4809 -13.939 1144.4)"><g clip-path="url(#a)"><g transform="translate(205.19,628.1)"><path d="m0 0v15.052l-6.232 6.232h-159.07l1.585-1.375h6.945l7.034-8.572c-0.239-0.792-0.406-1.676-0.484-2.657-0.542-0.117-0.958-0.576-0.958-1.154 0-0.577 0.416-1.037 0.959-1.152 0.077-0.979 0.244-1.862 0.483-2.653l-7.039-8.578h-6.94l-1.586-1.375h159.07zm-152.63-4.857 1.624 2.044h141.92c-2.197-1.155-4.388-1.745-6.058-2.044zm5.902 15.125v-5.487l-1.882-2.368c-0.514 1.077-0.89 2.39-1.013 3.983 0.487 0.154 0.848 0.593 0.848 1.13 0 0.538-0.362 0.978-0.849 1.131 0.123 1.593 0.499 2.905 1.013 3.981zm-3.804 6.999h5.56c-0.938-0.511-2.207-1.404-3.275-2.877zm2.287-16.605c1.067-1.474 2.336-2.366 3.274-2.876h-5.559zm-1.264 2.392c0.152-0.405 0.32-0.783 0.504-1.138l-5.382-6.773h-1.614zm-4.88 16.855 5.382-6.773c-0.182-0.354-0.349-0.731-0.501-1.133l-6.488 7.906zm138.65 0c1.678-0.255 4.055-0.815 6.46-2.043h-141.73l-1.623 2.043zm14.358-8.826c-2.686 5.266-7.272 7.701-10.965 8.826h5.537l5.428-5.428zm0-5.357c-1.535-3.873-4.073-6.372-6.719-7.979v0.039h-135.42c-0.291 0.086-2.642 0.858-4.36 3.344l2.52 3.171v6.447l-2.522 3.174c1.718 2.486 4.07 3.259 4.36 3.345h135.32c2.682-1.606 5.265-4.12 6.82-8.041zm0-5.156-5.428-5.427h-5.223c3.634 1.165 8.04 3.607 10.651 8.722z" fill="#231f20"/></g></g></g><g transform="matrix(1.4809 0 0 -1.4809 40.382 178.56)"><path d="m0 0 11.757-10.198v-12.683l-11.757-10.198-4.159 3.915v25.251zm-0.041 2.021-0.986-0.928-4.16-3.913-0.472-0.445v-26.547l0.472-0.445 4.159-3.914 0.987-0.93 1.023 0.889 11.758 10.198 0.517 0.449v14.051l-0.517 0.449-11.758 10.198z" fill="#231f20"/></g><g transform="matrix(1.4809 0 0 -1.4809 -13.939 1144.4)"><g clip-path="url(#b)"><g transform="translate(205.19,460.37)"><path d="m0 0v15.052l-6.232 6.232h-158.74l1.586-1.375h48.737l7.034-8.572c-0.239-0.792-0.406-1.676-0.484-2.657-0.542-0.117-0.958-0.576-0.958-1.154 0-0.577 0.416-1.037 0.959-1.152 0.077-0.979 0.244-1.862 0.483-2.653l-7.039-8.578h-48.733l-1.585-1.375h158.74zm-110.51-4.857 1.624 2.044h99.805c-2.197-1.155-4.388-1.745-6.058-2.044zm5.902 15.125v-5.487l-1.882-2.368c-0.514 1.077-0.89 2.39-1.013 3.983 0.487 0.154 0.848 0.593 0.848 1.13 0 0.538-0.362 0.978-0.849 1.131 0.123 1.593 0.499 2.905 1.013 3.981zm-3.804 6.999h5.561c-0.939-0.511-2.208-1.404-3.276-2.877zm2.287-16.605c1.067-1.474 2.336-2.366 3.274-2.876h-5.559zm-1.264 2.392c0.152-0.405 0.32-0.783 0.504-1.138l-5.382-6.773h-1.614zm0.502 10.082c-0.182-0.354-0.349-0.731-0.501-1.133l-6.488 7.906h1.608zm91.153 6.773c1.678-0.255 4.055-0.815 6.46-2.043h-99.615l-1.623 2.043zm14.358-8.826c-2.687 5.266-7.272 7.701-10.965 8.826h5.537l5.428-5.428zm0-5.357c-1.535-3.873-4.073-6.372-6.719-7.979v0.039h-93.298c-0.291 0.086-2.642 0.858-4.36 3.344l2.52 3.171v6.447l-2.522 3.174c1.718 2.486 4.071 3.259 4.36 3.345h93.199c2.682-1.606 5.265-4.12 6.82-8.041zm0-5.156-5.428-5.427h-5.223c3.634 1.165 8.04 3.607 10.651 8.722z" fill="#231f20"/></g><g transform="translate(205.19,231.8)"><path d="m0 0v15.052l-6.232 6.232h-158.74l1.586-1.375h48.737l7.034-8.572c-0.239-0.792-0.406-1.676-0.484-2.657-0.542-0.117-0.958-0.576-0.958-1.154 0-0.577 0.416-1.037 0.959-1.152 0.077-0.979 0.244-1.862 0.483-2.653l-7.039-8.578h-48.733l-1.585-1.375h158.74zm-110.51-4.857 1.624 2.044h99.805c-2.197-1.155-4.388-1.745-6.058-2.044zm5.902 15.125v-5.487l-1.882-2.368c-0.514 1.077-0.89 2.39-1.013 3.983 0.487 0.154 0.848 0.593 0.848 1.13 0 0.538-0.362 0.978-0.849 1.131 0.123 1.593 0.499 2.905 1.013 3.981zm-3.804 6.999h5.561c-0.939-0.511-2.208-1.404-3.276-2.877zm2.287-16.605c1.067-1.474 2.336-2.366 3.274-2.876h-5.559zm-1.264 2.392c0.152-0.405 0.32-0.783 0.504-1.138l-5.382-6.773h-1.614zm0.502 10.082c-0.182-0.354-0.349-0.731-0.501-1.133l-6.488 7.906h1.608zm91.153 6.773c1.678-0.255 4.055-0.815 6.46-2.043h-99.615l-1.623 2.043zm14.358-8.826c-2.687 5.266-7.272 7.701-10.965 8.826h5.537l5.428-5.428zm0-5.357c-1.535-3.873-4.073-6.372-6.719-7.979v0.039h-93.298c-0.291 0.086-2.642 0.858-4.36 3.344l2.52 3.171v6.447l-2.522 3.174c1.718 2.486 4.071 3.259 4.36 3.345h93.199c2.682-1.606 5.265-4.12 6.82-8.041zm0-5.156-5.428-5.427h-5.223c3.634 1.165 8.04 3.607 10.651 8.722z" fill="#231f20"/></g><g transform="translate(394.19,628.1)"><path d="m0 0v15.052l-6.232 6.232h-158.74l1.586-1.375h48.737l7.034-8.572c-0.239-0.792-0.406-1.676-0.484-2.657-0.542-0.117-0.958-0.576-0.958-1.154 0-0.577 0.416-1.037 0.959-1.152 0.077-0.979 0.244-1.862 0.483-2.653l-7.039-8.578h-48.733l-1.585-1.375h158.74zm-110.51-4.857 1.624 2.044h99.805c-2.197-1.155-4.388-1.745-6.058-2.044zm5.902 15.125v-5.487l-1.882-2.368c-0.514 1.077-0.89 2.39-1.013 3.983 0.487 0.154 0.848 0.593 0.848 1.13 0 0.538-0.362 0.978-0.849 1.131 0.123 1.593 0.499 2.905 1.013 3.981zm-3.804 6.999h5.561c-0.939-0.511-2.208-1.404-3.276-2.877zm2.287-16.605c1.067-1.474 2.336-2.366 3.274-2.876h-5.559zm-1.264 2.392c0.152-0.405 0.32-0.783 0.504-1.138l-5.382-6.773h-1.614zm0.502 10.082c-0.182-0.354-0.349-0.731-0.501-1.133l-6.488 7.906h1.608zm91.153 6.773c1.678-0.255 4.055-0.815 6.46-2.043h-99.615l-1.623 2.043zm14.358-8.826c-2.687 5.266-7.272 7.701-10.965 8.826h5.537l5.428-5.428zm0-5.357c-1.535-3.873-4.073-6.372-6.719-7.979v0.039h-93.298c-0.291 0.086-2.642 0.858-4.36 3.344l2.52 3.171v6.447l-2.522 3.174c1.718 2.486 4.071 3.259 4.36 3.345h93.199c2.682-1.606 5.265-4.12 6.82-8.041zm0-5.156-5.428-5.427h-5.223c3.634 1.165 8.04 3.607 10.651 8.722z" fill="#231f20"/></g><g transform="translate(581.32,628.1)"><path d="m0 0v15.052l-6.232 6.232h-158.74l1.586-1.375h48.737l7.034-8.572c-0.239-0.792-0.406-1.676-0.484-2.657-0.542-0.117-0.958-0.576-0.958-1.154 0-0.577 0.416-1.037 0.959-1.152 0.077-0.979 0.244-1.862 0.483-2.653l-7.039-8.578h-48.733l-1.585-1.375h158.74zm-110.51-4.857 1.624 2.044h99.805c-2.197-1.155-4.388-1.745-6.058-2.044zm5.902 15.125v-5.487l-1.882-2.368c-0.514 1.077-0.89 2.39-1.013 3.983 0.487 0.154 0.848 0.593 0.848 1.13 0 0.538-0.362 0.978-0.849 1.131 0.123 1.593 0.499 2.905 1.013 3.981zm-3.804 6.999h5.561c-0.939-0.511-2.208-1.404-3.276-2.877zm2.287-16.605c1.067-1.474 2.336-2.366 3.274-2.876h-5.559zm-1.264 2.392c0.152-0.405 0.32-0.783 0.504-1.138l-5.382-6.773h-1.614zm0.502 10.082c-0.182-0.354-0.349-0.731-0.501-1.133l-6.488 7.906h1.608zm91.153 6.773c1.678-0.255 4.055-0.815 6.46-2.043h-99.615l-1.623 2.043zm14.358-8.826c-2.687 5.266-7.272 7.701-10.965 8.826h5.537l5.428-5.428zm0-5.357c-1.535-3.873-4.073-6.372-6.719-7.979v0.039h-93.298c-0.291 0.086-2.642 0.858-4.36 3.344l2.52 3.171v6.447l-2.522 3.174c1.718 2.486 4.071 3.259 4.36 3.345h93.199c2.682-1.606 5.265-4.12 6.82-8.041zm0-5.156-5.428-5.427h-5.223c3.634 1.165 8.04 3.607 10.651 8.722z" fill="#231f20"/></g><g transform="translate(581.32,458.35)"><path d="m0 0v15.052l-6.232 6.232h-158.74l1.586-1.375h48.737l7.034-8.572c-0.239-0.792-0.406-1.676-0.484-2.657-0.542-0.117-0.958-0.576-0.958-1.154 0-0.577 0.416-1.037 0.959-1.152 0.077-0.979 0.244-1.862 0.483-2.653l-7.039-8.578h-48.733l-1.585-1.375h158.74zm-110.51-4.857 1.624 2.044h99.805c-2.197-1.155-4.388-1.745-6.058-2.044zm5.902 15.125v-5.487l-1.882-2.368c-0.514 1.077-0.89 2.39-1.013 3.983 0.487 0.154 0.848 0.593 0.848 1.13 0 0.538-0.362 0.978-0.849 1.131 0.123 1.593 0.499 2.905 1.013 3.981zm-3.804 6.999h5.561c-0.939-0.511-2.208-1.404-3.276-2.877zm2.287-16.605c1.067-1.474 2.336-2.366 3.274-2.876h-5.559zm-1.264 2.392c0.152-0.405 0.32-0.783 0.504-1.138l-5.382-6.773h-1.614zm0.502 10.082c-0.182-0.354-0.349-0.731-0.501-1.133l-6.488 7.906h1.608zm91.153 6.773c1.678-0.255 4.055-0.815 6.46-2.043h-99.615l-1.623 2.043zm14.358-8.826c-2.687 5.266-7.272 7.701-10.965 8.826h5.537l5.428-5.428zm0-5.357c-1.535-3.873-4.073-6.372-6.719-7.979v0.039h-93.298c-0.291 0.086-2.642 0.858-4.36 3.344l2.52 3.171v6.447l-2.522 3.174c1.718 2.486 4.071 3.259 4.36 3.345h93.199c2.682-1.606 5.265-4.12 6.82-8.041zm0-5.156-5.428-5.427h-5.223c3.634 1.165 8.04 3.607 10.651 8.722z" fill="#231f20"/></g><g transform="translate(581.32,288.54)"><path d="m0 0v15.052l-6.232 6.232h-158.74l1.586-1.375h48.737l7.034-8.572c-0.239-0.792-0.406-1.676-0.484-2.657-0.542-0.117-0.958-0.576-0.958-1.154 0-0.577 0.416-1.037 0.959-1.152 0.077-0.979 0.244-1.862 0.483-2.653l-7.039-8.578h-48.733l-1.585-1.375h158.74zm-110.51-4.857 1.624 2.044h99.805c-2.197-1.155-4.388-1.745-6.058-2.044zm5.902 15.125v-5.487l-1.882-2.368c-0.514 1.077-0.89 2.39-1.013 3.983 0.487 0.154 0.848 0.593 0.848 1.13 0 0.538-0.362 0.978-0.849 1.131 0.123 1.593 0.499 2.905 1.013 3.981zm-3.804 6.999h5.561c-0.939-0.511-2.208-1.404-3.276-2.877zm2.287-16.605c1.067-1.474 2.336-2.366 3.274-2.876h-5.559zm-1.264 2.392c0.152-0.405 0.32-0.783 0.504-1.138l-5.382-6.773h-1.614zm0.502 10.082c-0.182-0.354-0.349-0.731-0.501-1.133l-6.488 7.906h1.608zm91.153 6.773c1.678-0.255 4.055-0.815 6.46-2.043h-99.615l-1.623 2.043zm14.358-8.826c-2.687 5.266-7.272 7.701-10.965 8.826h5.537l5.428-5.428zm0-5.357c-1.535-3.873-4.073-6.372-6.719-7.979v0.039h-93.298c-0.291 0.086-2.642 0.858-4.36 3.344l2.52 3.171v6.447l-2.522 3.174c1.718 2.486 4.071 3.259 4.36 3.345h93.199c2.682-1.606 5.265-4.12 6.82-8.041zm0-5.156-5.428-5.427h-5.223c3.634 1.165 8.04 3.607 10.651 8.722z" fill="#231f20"/></g><g transform="translate(581.32,147.82)"><path d="m0 0v15.052l-6.232 6.232h-158.74l1.586-1.375h48.737l7.034-8.572c-0.239-0.792-0.406-1.676-0.484-2.657-0.542-0.117-0.958-0.576-0.958-1.154 0-0.577 0.416-1.037 0.959-1.152 0.077-0.979 0.244-1.862 0.483-2.653l-7.039-8.578h-48.733l-1.585-1.375h158.74zm-110.51-4.857 1.624 2.044h99.805c-2.197-1.155-4.388-1.745-6.058-2.044zm5.902 15.125v-5.487l-1.882-2.368c-0.514 1.077-0.89 2.39-1.013 3.983 0.487 0.154 0.848 0.593 0.848 1.13 0 0.538-0.362 0.978-0.849 1.131 0.123 1.593 0.499 2.905 1.013 3.981zm-3.804 6.999h5.561c-0.939-0.511-2.208-1.404-3.276-2.877zm2.287-16.605c1.067-1.474 2.336-2.366 3.274-2.876h-5.559zm-1.264 2.392c0.152-0.405 0.32-0.783 0.504-1.138l-5.382-6.773h-1.614zm0.502 10.082c-0.182-0.354-0.349-0.731-0.501-1.133l-6.488 7.906h1.608zm91.153 6.773c1.678-0.255 4.055-0.815 6.46-2.043h-99.615l-1.623 2.043zm14.358-8.826c-2.687 5.266-7.272 7.701-10.965 8.826h5.537l5.428-5.428zm0-5.357c-1.535-3.873-4.073-6.372-6.719-7.979v0.039h-93.298c-0.291 0.086-2.642 0.858-4.36 3.344l2.52 3.171v6.447l-2.522 3.174c1.718 2.486 4.071 3.259 4.36 3.345h93.199c2.682-1.606 5.265-4.12 6.82-8.041zm0-5.156-5.428-5.427h-5.223c3.634 1.165 8.04 3.607 10.651 8.722z" fill="#231f20"/></g><g transform="translate(394.19,402.51)"><path d="m0 0v15.052l-6.232 6.232h-158.74l1.586-1.375h48.737l7.034-8.572c-0.239-0.792-0.406-1.676-0.484-2.657-0.542-0.117-0.958-0.576-0.958-1.154 0-0.577 0.416-1.037 0.959-1.152 0.077-0.979 0.244-1.862 0.483-2.653l-7.039-8.578h-48.733l-1.585-1.375h158.74zm-110.51-4.857 1.624 2.044h99.805c-2.197-1.155-4.388-1.745-6.058-2.044zm5.902 15.125v-5.487l-1.882-2.368c-0.514 1.077-0.89 2.39-1.013 3.983 0.487 0.154 0.848 0.593 0.848 1.13 0 0.538-0.362 0.978-0.849 1.131 0.123 1.593 0.499 2.905 1.013 3.981zm-3.804 6.999h5.561c-0.939-0.511-2.208-1.404-3.276-2.877zm2.287-16.605c1.067-1.474 2.336-2.366 3.274-2.876h-5.559zm-1.264 2.392c0.152-0.405 0.32-0.783 0.504-1.138l-5.382-6.773h-1.614zm0.502 10.082c-0.182-0.354-0.349-0.731-0.501-1.133l-6.488 7.906h1.608zm91.153 6.773c1.678-0.255 4.055-0.815 6.46-2.043h-99.615l-1.623 2.043zm14.358-8.826c-2.687 5.266-7.272 7.701-10.965 8.826h5.537l5.428-5.428zm0-5.357c-1.535-3.873-4.073-6.372-6.719-7.979v0.039h-93.298c-0.291 0.086-2.642 0.858-4.36 3.344l2.52 3.171v6.447l-2.522 3.174c1.718 2.486 4.071 3.259 4.36 3.345h93.199c2.682-1.606 5.265-4.12 6.82-8.041zm0-5.156-5.428-5.427h-5.223c3.634 1.165 8.04 3.607 10.651 8.722z" fill="#231f20"/></g><g transform="translate(394.19,175.95)"><path d="m0 0v15.052l-6.232 6.232h-158.74l1.586-1.375h48.737l7.034-8.572c-0.239-0.792-0.406-1.676-0.484-2.657-0.542-0.117-0.958-0.576-0.958-1.154 0-0.577 0.416-1.037 0.959-1.152 0.077-0.979 0.244-1.862 0.483-2.653l-7.039-8.578h-48.733l-1.585-1.375h158.74zm-110.51-4.857 1.624 2.044h99.805c-2.197-1.155-4.388-1.745-6.058-2.044zm5.902 15.125v-5.487l-1.882-2.368c-0.514 1.077-0.89 2.39-1.013 3.983 0.487 0.154 0.848 0.593 0.848 1.13 0 0.538-0.362 0.978-0.849 1.131 0.123 1.593 0.499 2.905 1.013 3.981zm-3.804 6.999h5.561c-0.939-0.511-2.208-1.404-3.276-2.877zm2.287-16.605c1.067-1.474 2.336-2.366 3.274-2.876h-5.559zm-1.264 2.392c0.152-0.405 0.32-0.783 0.504-1.138l-5.382-6.773h-1.614zm0.502 10.082c-0.182-0.354-0.349-0.731-0.501-1.133l-6.488 7.906h1.608zm91.153 6.773c1.678-0.255 4.055-0.815 6.46-2.043h-99.615l-1.623 2.043zm14.358-8.826c-2.687 5.266-7.272 7.701-10.965 8.826h5.537l5.428-5.428zm0-5.357c-1.535-3.873-4.073-6.372-6.719-7.979v0.039h-93.298c-0.291 0.086-2.642 0.858-4.36 3.344l2.52 3.171v6.447l-2.522 3.174c1.718 2.486 4.071 3.259 4.36 3.345h93.199c2.682-1.606 5.265-4.12 6.82-8.041zm0-5.156-5.428-5.427h-5.223c3.634 1.165 8.04 3.607 10.651 8.722z" fill="#231f20"/></g></g></g><g transform="matrix(1.4809 0 0 -1.4809 40.382 426.96)"><path d="m0 0 11.757-10.198v-12.683l-11.757-10.198-4.159 3.915v25.251zm-0.041 2.021-0.986-0.928-4.16-3.913-0.472-0.445v-26.547l0.472-0.445 4.159-3.914 0.987-0.93 1.023 0.889 11.758 10.198 0.517 0.449v14.051l-0.517 0.449-11.758 10.198z" fill="#231f20"/></g><g transform="matrix(1.4809 0 0 -1.4809 40.382 765.44)"><path d="m0 0 11.757-10.198v-12.683l-11.757-10.198-4.159 3.915v25.251zm-0.041 2.021-0.986-0.928-4.16-3.913-0.472-0.445v-26.547l0.472-0.445 4.159-3.914 0.987-0.93 1.023 0.889 11.758 10.198 0.517 0.449v14.051l-0.517 0.449-11.758 10.198z" fill="#231f20"/></g><g transform="matrix(1.4809 0 0 -1.4809 320.26 178.56)"><path d="m0 0 11.757-10.198v-12.683l-11.757-10.198-4.159 3.915v25.251zm-0.041 2.021-0.986-0.928-4.16-3.913-0.472-0.445v-26.547l0.472-0.445 4.159-3.914 0.987-0.93 1.023 0.889 11.758 10.198 0.517 0.449v14.051l-0.517 0.449-11.758 10.198z" fill="#231f20"/></g><g transform="matrix(1.4809 0 0 -1.4809 597.4 178.56)"><path d="m0 0 11.757-10.198v-12.683l-11.757-10.198-4.159 3.915v25.251zm-0.041 2.021-0.986-0.928-4.16-3.913-0.472-0.445v-26.547l0.472-0.445 4.159-3.914 0.987-0.93 1.023 0.889 11.758 10.198 0.517 0.449v14.051l-0.517 0.449-11.758 10.198z" fill="#231f20"/></g><g transform="matrix(1.4809 0 0 -1.4809 597.4 429.95)"><path d="m0 0 11.757-10.198v-12.683l-11.757-10.198-4.159 3.915v25.251zm-0.041 2.021-0.986-0.928-4.16-3.913-0.472-0.445v-26.547l0.472-0.445 4.159-3.914 0.987-0.93 1.023 0.889 11.758 10.198 0.517 0.449v14.051l-0.517 0.449-11.758 10.198z" fill="#231f20"/></g><g transform="matrix(1.4809 0 0 -1.4809 597.4 681.44)"><path d="m0 0 11.757-10.198v-12.683l-11.757-10.198-4.159 3.915v25.251zm-0.041 2.021-0.986-0.928-4.16-3.913-0.472-0.445v-26.547l0.472-0.445 4.159-3.914 0.987-0.93 1.023 0.889 11.758 10.198 0.517 0.449v14.051l-0.517 0.449-11.758 10.198z" fill="#231f20"/></g><g transform="matrix(1.4809 0 0 -1.4809 597.4 889.83)"><path d="m0 0 11.757-10.198v-12.683l-11.757-10.198-4.159 3.915v25.251zm-0.041 2.021-0.986-0.928-4.16-3.913-0.472-0.445v-26.547l0.472-0.445 4.159-3.914 0.987-0.93 1.023 0.889 11.758 10.198 0.517 0.449v14.051l-0.517 0.449-11.758 10.198z" fill="#231f20"/></g><g transform="matrix(1.4809 0 0 -1.4809 320.26 512.64)"><path d="m0 0 11.757-10.198v-12.683l-11.757-10.198-4.159 3.915v25.251zm-0.041 2.021-0.986-0.928-4.16-3.913-0.472-0.445v-26.547l0.472-0.445 4.159-3.914 0.987-0.93 1.023 0.889 11.758 10.198 0.517 0.449v14.051l-0.517 0.449-11.758 10.198z" fill="#231f20"/></g><g transform="matrix(1.4809 0 0 -1.4809 320.26 848.18)"><path d="m0 0 11.757-10.198v-12.683l-11.757-10.198-4.159 3.915v25.251zm-0.041 2.021-0.986-0.928-4.16-3.913-0.472-0.445v-26.547l0.472-0.445 4.159-3.914 0.987-0.93 1.023 0.889 11.758 10.198 0.517 0.449v14.051l-0.517 0.449-11.758 10.198z" fill="#231f20"/></g><g transform="matrix(1.4809 0 0 -1.4809 -13.939 1144.4)"><g clip-path="url(#c)"><g transform="translate(231.41,753)"><path d="m0 0c0.28 0 0.28-0.412 0-0.412h-0.384v0.412zm0.276-0.723c0.654 0.148 0.52 1.15-0.276 1.15h-0.86v-1.804h0.476v0.561h0.167l0.429-0.561h0.511v0.104zm-0.429-1.162c0.849 0 1.329 0.622 1.329 1.409 0 0.785-0.48 1.406-1.329 1.406-0.844 0-1.324-0.621-1.328-1.406 4e-3 -0.787 0.484-1.409 1.328-1.409m1.756 1.409c0-0.961-0.63-1.77-1.755-1.77-1.121 0-1.751 0.809-1.751 1.77 0 0.958 0.63 1.769 1.751 1.769 1.125 0 1.755-0.811 1.755-1.769" fill="#231f20"/></g><g transform="translate(226.38,767.18)"><path d="m0 0c-1.261 0.662-2.546 0.982-4.298 1.052v0.014h-3.514c-2.781 0-4.099 0.037-5.064 0.258-0.833 0.192-1.579 0.676-1.587 0.679l-0.213 0.14 0.023-0.252c5e-3 -0.081 0.197-1.966 2.451-3.61 0.434-0.314 0.739-0.622 0.739-1.728v-0.731c0.482 0.298 1.014 0.561 1.603 0.784-0.198-0.172-0.44-0.43-0.644-0.709 0.391 0.257 0.88 0.474 1.679 0.616 1.057 0.187 1.829 0.105 2.237 0.027v0.277h1.965c2.573 0 4.051-1.644 4.051-4.513 0-2.849-1.478-4.481-4.051-4.481h-0.769c0.679-0.619 1.105-1.471 1.105-2.413 0-0.678-0.226-1.304-0.599-1.835 2.442 0.022 4.006 0.458 5.695 1.584 0.737 0.497 1.368 1.074 1.877 1.716 1.158 1.445 1.822 3.443 1.822 5.477 0 3.31-1.686 6.169-4.508 7.648m-10.569-12.24c0.111 0.159 0.133 0.362 0.062 0.558l-0.563 1.55 1.419-0.842c0.134-0.08 0.257-0.178 0.373-0.284l0.864 0.064c0.65 0.061 1.27-0.037 1.826-0.249v4.417c-0.315-0.109-0.561-0.23-0.674-0.332l-0.363-0.329-0.39 0.297c-0.252 0.192-0.628 0.302-1.03 0.302-0.66 0-1.303-0.285-1.719-0.761-0.256-0.294-0.487-0.598-0.699-0.899v-3.505c0.346-0.264 0.707-0.255 0.894 0.013m-17.499 0.242-0.547-0.763 0.195 2.155c0.159 1.753 1.237 3.019 1.991 3.707-0.152-0.015-0.315-0.038-0.497-0.075l-1.931-0.399 1.393 1.395c0.478 0.477 1.144 0.831 1.731 1.144 0.065 0.035 0.137 0.073 0.208 0.112-0.685 2.025-2.08 3.703-4.023 4.722-1.262 0.662-2.547 0.982-4.298 1.052v0.014h-3.514c-2.781 0-4.1 0.037-5.065 0.258-0.831 0.192-1.579 0.676-1.586 0.679l-0.213 0.14 0.022-0.252c7e-3 -0.081 0.196-1.966 2.451-3.61 0.434-0.314 0.74-0.622 0.74-1.728v-10.089c0-1.08-0.211-1.381-0.715-1.685-0.527-0.316-1.657-0.979-1.657-0.98l-0.392-0.229h9.142c2.561 0 4.159 0.431 5.892 1.589 0.245 0.163 0.466 0.346 0.687 0.528-0.127 0.784-0.119 1.572-0.014 2.315m21.48 7.871v0.483c-0.31-0.101-0.753-0.255-0.949-0.37 0.325 0 0.641-0.046 0.949-0.113m-27.586-8.05h-1.963v8.994h1.963c2.575 0 4.052-1.644 4.052-4.513 0-2.849-1.477-4.481-4.052-4.481" fill="#231f20"/></g><g transform="translate(217.93,754.82)"><path d="m0 0c0.272-0.046 0.779-0.388 0.779-0.876 0-0.292-0.135-0.519-0.413-0.694-0.121-0.077-0.265-0.139-0.421-0.186 0.083 0.277 0.123 0.579 0.112 0.896-0.02 0.557-0.057 0.86-0.057 0.86m-0.434 6.631c-2.602-0.125-4.842-2.341-5.989-3.898 0.205-0.069 0.415-0.163 0.62-0.328 0.241-0.194 0.597-0.485 0.977-0.799 0.302 0.669 0.998 2.06 2.076 3.296 0.969 1.112 2.662 1.217 3.55 0.541 0.573 0.517 2.544 1.002 3.582 0.707-0.633 0.688-1.976 1.609-3.462 1.609-1.223 0-1.915-0.6-2.091-0.331-0.226 0.347 0.829 0.858 0.829 0.858-1.446-0.059-2.498-1.76-2.936-1.548-0.26 0.125 0.391 0.947 0.391 0.947-1.322-0.768-2.43-2.395-2.661-3.386 1.217 1.49 3.578 2.557 5.114 2.332m-6.013-8.423c-0.515 0.453-1.285 1.093-1.868 1.557-0.659-1.13-2.066-2.603-3.492-2.603-2.625 0-3.94 3.715-0.997 6.752-0.171 0.056-0.34 0.063-0.397 0.063-0.251 0-0.498-0.067-0.66-0.179l-1.157-0.799 0.262 1.473c0.026 0.079 0.057 0.156 0.092 0.232-0.668-0.332-1.325-0.805-1.573-1.076l-1.138-1.248 0.122 1.752c0.025 0.136 0.053 0.269 0.079 0.395 0.06 0.284 0.133 0.636 0.088 0.754-0.015 0.036-0.046 0.067-0.082 0.093-0.543-0.418-2.032-1.735-2.206-3.67 0 0 0.288 0.406 0.538 0.501 0.165 0.064 0.31-0.018 0.152-0.501-0.062-0.189-1.496-4.073 1.325-6.759 0 0-0.309 0.79-0.122 1.03 0.09 0.116 0.209 0.126 0.372-0.083 0.121-0.16 0.249-0.315 0.384-0.469l1e-3 -2e-3c0.234-0.264 0.491-0.514 0.77-0.729 0.845-0.592 1.991-1.067 3.295-1.067 3.491 0 5.34 2.407 6.366 4.428-0.045 0.053-0.096 0.104-0.154 0.155m10.029-0.435c0 1.68-1.629 2.982-3.483 2.809 0.529-0.091 1.27-0.654 1.27-1.458 0-1.311-1.636-1.715-2.541-1.511 0.96 0.666 0.833 2.583-0.322 3.269 0.39-1.074-0.782-2.142-1.923-1.206-0.634 0.521-2.101 1.744-2.756 2.27-0.653 0.526-1.42 0.22-1.723 0.449-0.344 0.262-0.124 0.998-0.594 1.271-0.394 0.228-0.781 0.101-1.24 0.253-0.415 0.138-0.726 0.461-0.672 0.897-0.177-0.311-0.188-0.853 0.127-1.219 0.313-0.363 0.835-0.586 1.051-0.984 0.279-0.516-0.191-1.232 1.051-2.206 0.594-0.465 1.514-1.228 2.115-1.755 1.011-0.887 0.472-1.995 0.604-2.961 0.153-1.128 1.062-1.753 1.665-1.912-0.52 0.475-0.718 1.666 0.014 2.397 0.038-0.942 0.718-2.418 2.269-2.832 1.65-0.439 3.403 0.496 3.768 1.154-0.636-0.288-1.835 0.022-2.329 0.485 1.936-0.274 3.649 1.069 3.649 2.79m-12.769 8.08s-0.246 0.8-1.087 1.11c0.165-0.58 0.387-1.11 1.087-1.11m-9.4 0.114c0.831 0.832 2.533 1.348 2.649 1.801 0.111 0.446-0.771 1.206-1.1 1.349 1.211 0.048 1.815-0.18 1.815-0.18-0.317 0.466-0.419 1.178-0.239 1.744 0.659-1.584 3.02-1.839 3.605-3.151-0.084 0.565-0.62 1.203-1.241 1.574-0.334 0.862-0.084 2.451 0.324 2.889-0.143-2.284 3.117-3.591 3.793-5.251-0.397 1.421-1.916 2.323-2.637 3.174-0.238 0.565-0.055 1.523 0.203 1.85-0.076-1.53 1.575-2.724 2.458-3.58 1.04-1.006 1.335-1.897 1.194-2.625 0.228-0.06 0.541-0.282 0.489-0.657 0.332 0.077 0.67 0.458 0.752 0.692 0.163-1.135-0.505-2.338-1.254-2.696 0 0 0.201 0.542-0.14 0.957-0.336 0.409-1.292 0.414-1.614 0.391 0 0 0.396 0.585 0.239 0.884-0.196 0.368-2.064 0.205-2.899-0.096 0.284 0.03 0.957-0.046 1.192-0.143-0.13-0.195-0.473-1.018-0.227-1.265 0.227-0.227 0.525 0.166 0.525 0.166s-0.292-0.9-0.082-1.109c0.208-0.209 0.655-0.06 0.655-0.06-0.278-0.707-1.364-1.193-2.124-1.193 0.272 0.086 0.719 0.568 0.787 0.859-0.199-0.1-0.718-0.157-0.918-0.12 0.245 0.1 0.739 0.733 0.586 1.445-0.226 1.038-1.673 1.17-2.401 0.668 0.236 0.697 0.941 1.349 1.491 1.562-0.322 0.114-0.699 0.209-1.105 0.282 0.463 0.38 1.625 0.689 2.219 0.657-0.905 0.232-2.56-0.058-3.318-0.953 0.241 0 0.866-0.118 1.106-0.195-1.038-0.188-2.452-1.155-2.869-1.611 0.11 0.601 0.278 1.109 0.136 1.471-0.2 0.51-0.819 0.724-2.05 0.47m1.916 5.34c-0.179 1.964 0.756 3.05 1.178 3.48 0.928 0.946 2.178 1.518 4.024 1.419 2.915-0.156 4.314-2.157 4.314-4.313 0-1.04-0.529-2.431-1.262-3.418-0.044 0.045-0.082 0.089-0.129 0.134-0.145 0.14-0.31 0.29-0.485 0.449-0.479 0.433-1.02 0.93-1.383 1.467 0.798 1.453 0.342 3.512-1.345 3.512-0.987 0-1.811-0.905-1.741-2.106-0.257-0.568-0.383-1.391-0.334-2.122-0.483 0.304-0.892 0.637-1.083 1.099l-0.62 1.486-0.488-1.534c-0.116-0.365-0.142-0.774-0.088-1.169-3e-3 0-7e-3 0-0.01 1e-3 -0.221 0.333-0.48 0.864-0.548 1.615" fill="#231f20"/></g></g></g></svg>
