<svg xmlns="http://www.w3.org/2000/svg" width="17" height="18" viewBox="0 0 4.5 4.8"><style>.a{-inkscape-font-specification:ScalaSans-BoldLF;fill:#9c9a9b;font-family:'Scala Sans LF';font-size:5px;font-weight:500;stroke-width:0.4;}.b{-inkscape-font-specification:ScalaSans-BoldLF;fill:#9c9a9b;font-family:'Scala Sans LF';font-size:4px;font-weight:500;stroke-width:0.4;}</style><path d="m0.5 3.8q0.1 0 0.2 0 0.1 0 0.2 0 0.1 0 0.2 0.1 0.1 0.1 0.1 0.2L1.2 4.2 1.7 4 1.8 4.1 0.5 4.8 0.3 4.4q-0.1-0.1-0.1-0.2 0-0.1 0-0.2 0-0.1 0.1-0.2 0.1-0.1 0.2-0.1zm0.1 0.2q-0.1 0-0.1 0.1 0 0 0 0.1 0 0.1 0 0.1 0 0.1 0.1 0.1L0.6 4.5 1.1 4.3 1 4.1Q0.9 4 0.9 4 0.8 3.9 0.8 3.9 0.7 3.9 0.7 3.9 0.6 3.9 0.6 3.9Z" class="a"/><path d="M1.5 2.2 1.4 2.4 0.9 2.9 0.8 3.1 1.4 3.2 1.4 3.3 0 3.3 0 2.9q0-0.1 0-0.2 0-0.1 0.1-0.1 0.1-0.1 0.1-0.1 0.1 0 0.2 0 0.2 0 0.2 0.1 0.1 0.1 0.1 0.2zM0.4 2.6q-0.1 0-0.1 0 0 0-0.1 0.1 0 0 0 0.1 0 0.1 0 0.1L0.2 3.1 0.7 3.1 0.7 2.9q0-0.1 0-0.2 0-0.1-0.1-0.1 0 0-0.1-0.1-0.1 0-0.1 0z" class="b"/><path d="m1.2 0.9q0.1 0 0.3 0 0.1 0.1 0.3 0.2 0.1 0.1 0.2 0.2 0.1 0.1 0.1 0.2Q2 1.7 2 1.8 1.9 1.9 1.8 2 1.7 2.1 1.6 2.2 1.5 2.3 1.4 2.3 1.3 2.3 1.1 2.2 1 2.2 0.9 2.1 0.7 1.9 0.7 1.8 0.6 1.7 0.6 1.6 0.5 1.5 0.6 1.3 0.6 1.2 0.7 1.1 0.8 1 0.9 0.9 1 0.9 1.2 0.9ZM1.6 1.2Q1.3 1 1.2 1 1 1 0.8 1.2 0.7 1.4 0.7 1.6 0.8 1.7 1 1.9 1.2 2.1 1.4 2.1 1.6 2.1 1.7 1.9 1.8 1.8 1.8 1.6 1.8 1.4 1.6 1.2Z" class="b"/><path d="M2.8 0.2 2.2 0.3 2.3 0.7 2.9 0.6 2.9 0.7 2.3 0.9 2.5 1.5 2.3 1.6 1.9 0.2 2.8 0Z" class="a"/><path d="m3.1 4.3c0.7 0 1.3-0.6 1.3-1.3 0-0.7-0.6-1.3-1.3-1.3-0.7 0-1.3 0.6-1.3 1.3 0 0.7 0.6 1.3 1.3 1.3" stroke-width="0.4"/><path d="m3.1 4.5c-0.8 0-1.4-0.6-1.4-1.4 0-0.8 0.6-1.4 1.4-1.4 0.8 0 1.4 0.6 1.4 1.4 0 0.8-0.6 1.4-1.4 1.4m0-2.5c-0.6 0-1.1 0.5-1.1 1.1 0 0.6 0.5 1.1 1.1 1.1 0.6 0 1.1-0.5 1.1-1.1 0-0.6-0.5-1.1-1.1-1.1" style="fill:#0a0a0d;stroke-width:0.4"/></svg>
