<?xml version="1.0" encoding="UTF-8" standalone="no"?>
<svg
   xmlns:dc="http://purl.org/dc/elements/1.1/"
   xmlns:cc="http://creativecommons.org/ns#"
   xmlns:rdf="http://www.w3.org/1999/02/22-rdf-syntax-ns#"
   xmlns:svg="http://www.w3.org/2000/svg"
   xmlns="http://www.w3.org/2000/svg"
   id="svg18270"
   version="1.1"
   viewBox="0 0 4.4979167 4.7625"
   height="18"
   width="17">
  <defs
     id="defs18264" />
  <metadata
     id="metadata18267">
    <rdf:RDF>
      <cc:Work
         rdf:about="">
        <dc:format>image/svg+xml</dc:format>
        <dc:type
           rdf:resource="http://purl.org/dc/dcmitype/StillImage" />
        <dc:title></dc:title>
      </cc:Work>
    </rdf:RDF>
  </metadata>
  <g
     id="g20005"
     transform="matrix(1.1612395,0,0,1.1448454,5.6226283e-8,-0.38691922)">
    <path
       id="path18241"
       d="m 0.40840626,3.6319885 q 0.0708806,-0.03677 0.14471183,-0.043221 0.0727423,-0.00677 0.14011161,0.014654 0.083663,0.02665 0.15050293,0.087505 0.0661171,0.06122 0.12541754,0.1760165 L 1.0425269,4.0089995 1.4398971,3.8028888 1.5132738,3.9449466 0.44717788,4.4979168 0.29745501,4.2080616 Q 0.2477918,4.1119167 0.22979864,4.0366558 0.21108783,3.9617618 0.21876353,3.892279 0.22812413,3.8101207 0.27187976,3.7455562 0.31532337,3.6802715 0.4083969,3.6319906 Z m 0.0799188,0.1459412 q -0.055134,0.028598 -0.0859303,0.06913 -0.0308068,0.040542 -0.0361943,0.093373 -0.004368,0.045952 0.009257,0.095259 0.0125848,0.048963 0.0474167,0.1164067 L 0.49551189,4.2927212 0.92152133,4.0717558 0.85962693,3.9519389 q -0.0444733,-0.086098 -0.0873032,-0.1321067 -0.0435476,-0.045639 -0.0946149,-0.061908 -0.051785,-0.015894 -0.0967783,-0.0099 -0.0453573,0.00532 -0.092618,0.029839 z"
       style="font-variant:normal;font-weight:500;font-stretch:normal;font-size:4.50003529px;font-family:'Scala Sans LF';-inkscape-font-specification:ScalaSans-BoldLF;writing-mode:lr-tb;fill:#9c9a9b;fill-opacity:1;fill-rule:nonzero;stroke:none;stroke-width:0.36729231" />
    <path
       id="path18219"
       d="M 1.2549097,2.2613771 1.2431361,2.4686623 0.74382377,2.8431584 0.73104135,3.0681885 1.2075398,3.0953593 1.1984912,3.2550578 -4.8419196e-8,3.1867089 0.01910599,2.8503727 q 0.0061364,-0.1088861 0.0247952,-0.1806492 0.01780595,-0.071809 0.0573285,-0.1278191 0.0447645,-0.062992 0.10960332,-0.095707 0.0640889,-0.03357 0.15986769,-0.028109 0.12958822,0.0074 0.21361108,0.077719 0.0832158,0.070287 0.1209827,0.1873465 z M 0.3724605,2.5856975 Q 0.320946,2.5827775 0.2804561,2.5990485 0.239207,2.6144835 0.2094507,2.6548805 0.1841355,2.6882415 0.1725803,2.7353085 0.1602139,2.7823445 0.1565529,2.846871 l -0.010671,0.18793 0.45235226,0.025795 0.009153,-0.1613119 Q 0.61165099,2.8234625 0.60197837,2.7662717 0.59150489,2.7090329 0.55752589,2.6674483 0.52578304,2.6292196 0.4832755,2.609803 0.4400087,2.5895527 0.37240225,2.5856965 Z"
       style="font-variant:normal;font-weight:500;font-stretch:normal;font-size:4.49997044px;font-family:'Scala Sans LF';-inkscape-font-specification:ScalaSans-BoldLF;writing-mode:lr-tb;fill:#9c9a9b;fill-opacity:1;fill-rule:nonzero;stroke:none;stroke-width:0.36729228" />
    <path
       id="path18224"
       d="m 0.99438532,1.0926334 q 0.10886798,-0.00542 0.22372058,0.039083 0.11536,0.043878 0.2298943,0.1383518 0.1145312,0.094467 0.1797933,0.2006108 0.06515,0.1050069 0.079929,0.2103244 0.015726,0.1092394 -0.017078,0.2140139 Q 1.6583403,1.9991667 1.5758567,2.0995952 1.4954179,2.1975223 1.3969579,2.2512936 1.2990044,2.3044364 1.1912732,2.3097413 1.0835378,2.3150567 0.96879655,2.2716794 0.85457013,2.2276873 0.73941597,2.1327086 0.62612561,2.0392631 0.56108604,1.9353953 0.4954266,1.8310106 0.4784423,1.7207426 0.46252928,1.6155387 0.49676829,1.5077543 0.53151693,1.3993445 0.61041955,1.3032872 0.69239765,1.2034841 0.79045518,1.1514835 0.88839831,1.0983406 0.99438324,1.0926293 Z M 1.3424448,1.3985754 Q 1.1619297,1.2496847 0.99759601,1.2501672 0.83264135,1.2501339 0.71736342,1.3904773 0.60105895,1.5320693 0.63280596,1.6942785 0.6644448,1.8553454 0.84495575,2.0042371 1.0273346,2.1546651 1.1920719,2.1524233 1.35618,2.1497135 1.4699238,2.011194 1.5836656,1.8727213 1.5543045,1.7114324 1.524829,1.5490033 1.34245,1.3985754 Z"
       style="font-variant:normal;font-weight:500;font-stretch:normal;font-size:4.49998999px;font-family:'Scala Sans LF';-inkscape-font-specification:ScalaSans-BoldLF;writing-mode:lr-tb;fill:#9c9a9b;fill-opacity:1;fill-rule:nonzero;stroke:none;stroke-width:0.36729231" />
    <path
       id="path18229"
       d="M 2.4474715,0.47471931 1.8635892,0.64126624 1.9562904,0.96761277 2.4579793,0.8245106 2.4968258,0.9612646 1.9951369,1.1043668 2.1533936,1.661485 1.999863,1.7052791 1.6712101,0.54830742 2.4086219,0.33796635 Z"
       style="font-variant:normal;font-weight:500;font-stretch:normal;font-size:4.50003052px;font-family:'Scala Sans LF';-inkscape-font-specification:ScalaSans-BoldLF;writing-mode:lr-tb;fill:#9c9a9b;fill-opacity:1;fill-rule:nonzero;stroke:none;stroke-width:0.36729228" />
    <path
       id="path18199"
       style="fill:#ffffff;fill-opacity:1;fill-rule:nonzero;stroke:none;stroke-width:0.36729228"
       d="m 2.6515566,4.1075196 c 0.6024704,0 1.0904637,-0.489005 1.0904637,-1.0923551 0,-0.6033501 -0.4879933,-1.0919871 -1.0904637,-1.0919871 -0.6021032,0 -1.0900975,0.488637 -1.0900975,1.0919871 0,0.6033501 0.4879943,1.0923551 1.0900975,1.0923551" />
    <path
       id="path18211"
       style="fill:#0a0a0d;fill-opacity:1;fill-rule:nonzero;stroke:none;stroke-width:0.36729228"
       d="m 2.6515566,4.2392938 c -0.6736515,0 -1.2214518,-0.5489347 -1.2214518,-1.2239813 0,-0.6750466 0.5478003,-1.2239813 1.2214518,-1.2239813 0.6740187,0 1.221819,0.5489347 1.221819,1.2239813 0,0.6750466 -0.5478003,1.2239813 -1.221819,1.2239813 m 0,-2.184709 c -0.5287212,0 -0.9587422,0.4305446 -0.9587422,0.9607277 0,0.5298162 0.430021,0.9607278 0.9587422,0.9607278 0.5287213,0 0.9591094,-0.4309116 0.9591094,-0.9607278 0,-0.5301831 -0.4303881,-0.9607277 -0.9591094,-0.9607277" />
  </g>
</svg>
