<svg xmlns="http://www.w3.org/2000/svg" viewBox="0 0 4.5 4.8" height="18" width="17"><style>.a{-inkscape-font-specification:ScalaSans-BoldLF;fill:#9c9a9b;font-family:'Scala Sans LF';font-size:5px;font-weight:500;stroke-width:0.4;}.b{-inkscape-font-specification:ScalaSans-BoldLF;fill:#9c9a9b;font-family:'Scala Sans LF';font-size:4px;font-weight:500;stroke-width:0.4;}</style><g transform="matrix(1.1612395 0 0 1.1448454 5.6226283e-8 -0.38691922)"><path d="m0.4 3.6q0.1 0 0.1 0 0.1 0 0.1 0 0.1 0 0.2 0.1 0.1 0.1 0.1 0.2L1 4 1.4 3.8 1.5 3.9 0.4 4.5 0.3 4.2Q0.2 4.1 0.2 4 0.2 4 0.2 3.9 0.2 3.8 0.3 3.7 0.3 3.7 0.4 3.6Zm0.1 0.1q-0.1 0-0.1 0.1 0 0 0 0.1 0 0 0 0.1 0 0 0 0.1L0.5 4.3 0.9 4.1 0.9 4q0-0.1-0.1-0.1 0 0-0.1-0.1-0.1 0-0.1 0 0 0-0.1 0z" class="a"/><path d="M1.3 2.3 1.2 2.5 0.7 2.8 0.7 3.1 1.2 3.1 1.2 3.3 0 3.2 0 2.9q0-0.1 0-0.2 0-0.1 0.1-0.1 0-0.1 0.1-0.1 0.1 0 0.2 0 0.1 0 0.2 0.1 0.1 0.1 0.1 0.2zM0.4 2.6Q0.3 2.6 0.3 2.6 0.2 2.6 0.2 2.7 0.2 2.7 0.2 2.7 0.2 2.8 0.2 2.8l0 0.2 0.5 0 0-0.2Q0.6 2.8 0.6 2.8 0.6 2.7 0.6 2.7 0.5 2.6 0.5 2.6 0.4 2.6 0.4 2.6Z" class="b"/><path d="m1 1.1q0.1 0 0.2 0 0.1 0 0.2 0.1 0.1 0.1 0.2 0.2 0.1 0.1 0.1 0.2 0 0.1 0 0.2Q1.7 2 1.6 2.1 1.5 2.2 1.4 2.3 1.3 2.3 1.2 2.3 1.1 2.3 1 2.3 0.9 2.2 0.7 2.1 0.6 2 0.6 1.9 0.5 1.8 0.5 1.7 0.5 1.6 0.5 1.5 0.5 1.4 0.6 1.3 0.7 1.2 0.8 1.2 0.9 1.1 1 1.1ZM1.3 1.4Q1.2 1.2 1 1.3 0.8 1.3 0.7 1.4 0.6 1.5 0.6 1.7 0.7 1.9 0.8 2 1 2.2 1.2 2.2 1.4 2.1 1.5 2 1.6 1.9 1.6 1.7 1.5 1.5 1.3 1.4Z" class="b"/><path d="M2.4 0.5 1.9 0.6 2 1 2.5 0.8 2.5 1 2 1.1 2.2 1.7 2 1.7 1.7 0.5 2.4 0.3Z" class="a"/><path d="m2.7 4.1c0.6 0 1.1-0.5 1.1-1.1 0-0.6-0.5-1.1-1.1-1.1-0.6 0-1.1 0.5-1.1 1.1 0 0.6 0.5 1.1 1.1 1.1" style="fill:#fff;stroke-width:0.4"/><path d="m2.7 4.2c-0.7 0-1.2-0.5-1.2-1.2 0-0.7 0.5-1.2 1.2-1.2 0.7 0 1.2 0.5 1.2 1.2 0 0.7-0.5 1.2-1.2 1.2m0-2.2c-0.5 0-1 0.4-1 1 0 0.5 0.4 1 1 1 0.5 0 1-0.4 1-1 0-0.5-0.4-1-1-1" style="fill:#0a0a0d;stroke-width:0.4"/></g></svg>
