<?xml version="1.0" encoding="UTF-8" standalone="no"?>
<svg
   xmlns:dc="http://purl.org/dc/elements/1.1/"
   xmlns:cc="http://creativecommons.org/ns#"
   xmlns:rdf="http://www.w3.org/1999/02/22-rdf-syntax-ns#"
   xmlns:svg="http://www.w3.org/2000/svg"
   xmlns="http://www.w3.org/2000/svg"
   width="17"
   height="18"
   viewBox="0 0 4.4979167 4.7625"
   version="1.1"
   id="svg18270">
  <defs
     id="defs18264" />
  <metadata
     id="metadata18267">
    <rdf:RDF>
      <cc:Work
         rdf:about="">
        <dc:format>image/svg+xml</dc:format>
        <dc:type
           rdf:resource="http://purl.org/dc/dcmitype/StillImage" />
        <dc:title></dc:title>
      </cc:Work>
    </rdf:RDF>
  </metadata>
  <g
     id="g20019">
    <path
       style="font-variant:normal;font-weight:500;font-stretch:normal;font-size:4.50003529px;font-family:'Scala Sans LF';-inkscape-font-specification:ScalaSans-BoldLF;writing-mode:lr-tb;fill:#9c9a9b;fill-opacity:1;fill-rule:nonzero;stroke:none;stroke-width:0.42349294"
       d="m 0.47425754,3.7711461 q 0.0823094,-0.042096 0.16804509,-0.049481 0.0844712,-0.00775 0.16270314,0.016777 0.0971528,0.03051 0.17476994,0.1001797 0.0767778,0.070087 0.14563979,0.2015117 L 1.2106235,4.2027654 1.6720654,3.9668005 1.7572734,4.1294347 0.51928067,4.7625001 0.34541656,4.4306607 q -0.0576709,-0.110071 -0.0785652,-0.1962331 -0.0217277,-0.085742 -0.0128144,-0.1652891 0.0108699,-0.094059 0.0616807,-0.1679749 0.0504484,-0.074741 0.1585291,-0.1300151 z m 0.0928049,0.1670801 q -0.0640238,0.03274 -0.0997856,0.079143 -0.0357741,0.046414 -0.0420302,0.1068976 -0.005072,0.052608 0.0107496,0.1090569 0.014614,0.056055 0.0550621,0.1332676 L 0.57540804,4.5275829 1.070107,4.2746117 0.9982328,4.1374399 Q 0.94658865,4.038871 0.89685288,3.9861981 0.84628369,3.9339485 0.78698232,3.915323 0.72684753,3.8971268 0.67459953,3.903989 0.62192883,3.910079 0.56704785,3.93815 Z"
       id="path18241" />
    <path
       style="font-variant:normal;font-weight:500;font-stretch:normal;font-size:4.49997044px;font-family:'Scala Sans LF';-inkscape-font-specification:ScalaSans-BoldLF;writing-mode:lr-tb;fill:#9c9a9b;fill-opacity:1;fill-rule:nonzero;stroke:none;stroke-width:0.42349291"
       d="M 1.4572508,2.202008 1.4435788,2.4393175 0.8637576,2.8680576 0.84891415,3.1256823 1.402243,3.1567886 1.3917354,3.3396187 0,3.2613698 0.02218669,2.8763169 q 0.0071258,-0.1246578 0.02879316,-0.2068155 0.02067697,-0.08221 0.06657212,-0.1463331 0.0519823,-0.072116 0.12727571,-0.1095697 0.0744226,-0.038432 0.18564467,-0.03218 0.15048296,0.00847 0.24805363,0.088976 0.0966335,0.080468 0.14048989,0.2144828 z M 0.4325159,2.5733047 q -0.0598207,-0.00334 -0.10683914,0.015285 -0.0479001,0.017671 -0.0824543,0.063919 -0.029397,0.038193 -0.0428154,0.092078 -0.0143603,0.053849 -0.0186117,0.1277218 L 0.16940388,3.0874587 0.69469319,3.11699 0.70532202,2.9323128 q 0.004951,-0.086804 -0.006281,-0.1522786 -0.0121622,-0.06553 -0.05162,-0.1131375 -0.036861,-0.043766 -0.0862225,-0.065995 -0.0502431,-0.023183 -0.1287504,-0.027598 z"
       id="path18219" />
    <path
       style="font-variant:normal;font-weight:500;font-stretch:normal;font-size:4.49998999px;font-family:'Scala Sans LF';-inkscape-font-specification:ScalaSans-BoldLF;writing-mode:lr-tb;fill:#9c9a9b;fill-opacity:1;fill-rule:nonzero;stroke:none;stroke-width:0.42349294"
       d="m 1.1547196,0.8639771 q 0.1264218,-0.006205 0.2597931,0.044744 0.1339606,0.0502335 0.2669624,0.1583914 0.1329981,0.1081501 0.2087831,0.2296684 0.075655,0.1202166 0.092817,0.2407889 Q 2.0013365,1.662632 1.9632432,1.7825826 1.9257303,1.9018176 1.8299471,2.0167927 1.7365384,2.1289041 1.6222027,2.1904639 1.5084553,2.2513042 1.3833536,2.2573775 1.2582469,2.2634628 1.1250049,2.2138025 0.99236065,2.1634383 0.85863909,2.0547024 0.72708185,1.9477218 0.65155533,1.8288092 0.57530899,1.7093048 0.55558615,1.583065 0.53710733,1.4626228 0.57686702,1.3392264 0.61721851,1.2151139 0.70884335,1.1051431 0.80403956,0.99088402 0.91790783,0.93135137 1.0316433,0.87051096 1.1547172,0.86397241 Z M 1.5589,1.2142334 Q 1.3492787,1.0437766 1.1584479,1.0443289 0.96689608,1.0442908 0.8330308,1.2049623 0.69797345,1.3670633 0.73483933,1.5527677 0.7715796,1.7371644 0.98119605,1.9076224 1.1929816,2.0798392 1.384281,2.0772727 1.5748498,2.0741704 1.7069336,1.915587 1.8390151,1.7570571 1.8049198,1.5724063 1.7706917,1.3864501 1.558906,1.2142334 Z"
       id="path18224" />
    <path
       style="font-variant:normal;font-weight:500;font-stretch:normal;font-size:4.50003052px;font-family:'Scala Sans LF';-inkscape-font-specification:ScalaSans-BoldLF;writing-mode:lr-tb;fill:#9c9a9b;fill-opacity:1;fill-rule:nonzero;stroke:none;stroke-width:0.42349291"
       d="M 2.8421006,0.156561 2.1640734,0.34723149 2.2717217,0.72084781 2.8543027,0.55701795 2.8994128,0.71358014 2.3168318,0.87741003 2.5006058,1.5152242 2.32232,1.5653617 1.9406752,0.24080801 2.7969869,0 Z"
       id="path18229" />
    <path
       d="m 3.0790923,4.3155557 c 0.6996124,0 1.2662895,-0.5598351 1.2662895,-1.2505777 0,-0.6907426 -0.5666771,-1.2501564 -1.2662895,-1.2501564 -0.699186,0 -1.2658643,0.5594138 -1.2658643,1.2501564 0,0.6907426 0.5666783,1.2505777 1.2658643,1.2505777"
       style="fill:#000000;fill-opacity:1;fill-rule:nonzero;stroke:none;stroke-width:0.42349291"
       id="path18199" />
    <path
       d="m 3.0790923,4.4664168 c -0.7822707,0 -1.4183981,-0.6284454 -1.4183981,-1.4012694 0,-0.772824 0.6361274,-1.4012693 1.4183981,-1.4012693 0.7826972,0 1.4188245,0.6284453 1.4188245,1.4012693 0,0.772824 -0.6361273,1.4012694 -1.4188245,1.4012694 m 0,-2.5011541 c -0.6139719,0 -1.1133293,0.492907 -1.1133293,1.0998847 0,0.6065577 0.4993574,1.0998848 1.1133293,1.0998848 0.6139721,0 1.1137557,-0.4933271 1.1137557,-1.0998848 0,-0.6069777 -0.4997836,-1.0998847 -1.1137557,-1.0998847"
       style="fill:#0a0a0d;fill-opacity:1;fill-rule:nonzero;stroke:none;stroke-width:0.42349291"
       id="path18211" />
  </g>
</svg>
