<?xml version="1.0" encoding="UTF-8" standalone="no"?>
<svg
   xmlns:dc="http://purl.org/dc/elements/1.1/"
   xmlns:cc="http://creativecommons.org/ns#"
   xmlns:rdf="http://www.w3.org/1999/02/22-rdf-syntax-ns#"
   xmlns:svg="http://www.w3.org/2000/svg"
   xmlns="http://www.w3.org/2000/svg"
   width="24"
   height="17"
   viewBox="0 0 6.3499999 4.4979167"
   version="1.1"
   id="svg18270">
  <defs
     id="defs18264" />
  <metadata
     id="metadata18267">
    <rdf:RDF>
      <cc:Work
         rdf:about="">
        <dc:format>image/svg+xml</dc:format>
        <dc:type
           rdf:resource="http://purl.org/dc/dcmitype/StillImage" />
        <dc:title></dc:title>
      </cc:Work>
    </rdf:RDF>
  </metadata>
  <g
     id="g873">
    <path
       d="m 4.1088229,3.2406939 c -0.5287203,0 -0.9587423,-0.4309126 -0.9587423,-0.9607278 0,-0.5298162 0.430022,-0.9607288 0.9587423,-0.9607288 0.5290884,0 0.9591104,0.4309126 0.9591104,0.9607288 0,0.5298152 -0.430022,0.9607278 -0.9591104,0.9607278 m 0,-1.7148237 c -0.4149775,0 -0.7525375,0.3378901 -0.7525375,0.7540959 0,0.4158369 0.33756,0.754096 0.7525375,0.754096 0.4149785,0 0.7529046,-0.3382591 0.7529046,-0.754096 0,-0.4162058 -0.3379261,-0.7540959 -0.7529046,-0.7540959"
       style="fill:#0a0a0d;fill-opacity:1;fill-rule:nonzero;stroke:none;stroke-width:0.36729228"
       id="path17723" />
    <path
       d="m 2.6515566,4.1075196 c 0.6024704,0 1.0904637,-0.489005 1.0904637,-1.0923551 0,-0.6033501 -0.4879933,-1.0919871 -1.0904637,-1.0919871 -0.6021032,0 -1.0900975,0.488637 -1.0900975,1.0919871 0,0.6033501 0.4879943,1.0923551 1.0900975,1.0923551"
       style="fill:#ffffff;fill-opacity:1;fill-rule:nonzero;stroke:none;stroke-width:0.36729228"
       id="path18199" />
    <path
       d="m 2.6515566,4.2392938 c -0.6736515,0 -1.2214518,-0.5489347 -1.2214518,-1.2239813 0,-0.6750466 0.5478003,-1.2239813 1.2214518,-1.2239813 0.6740187,0 1.221819,0.5489347 1.221819,1.2239813 0,0.6750466 -0.5478003,1.2239813 -1.221819,1.2239813 m 0,-2.184709 c -0.5287212,0 -0.9587422,0.4305446 -0.9587422,0.9607277 0,0.5298162 0.430021,0.9607278 0.9587422,0.9607278 0.5287213,0 0.9591094,-0.4309116 0.9591094,-0.9607278 0,-0.5301831 -0.4303881,-0.9607277 -0.9591094,-0.9607277"
       style="fill:#0a0a0d;fill-opacity:1;fill-rule:nonzero;stroke:none;stroke-width:0.36729228"
       id="path18211" />
  </g>
</svg>
