<?xml version="1.0" encoding="UTF-8" standalone="no"?>
<svg
   xmlns:dc="http://purl.org/dc/elements/1.1/"
   xmlns:cc="http://creativecommons.org/ns#"
   xmlns:rdf="http://www.w3.org/1999/02/22-rdf-syntax-ns#"
   xmlns:svg="http://www.w3.org/2000/svg"
   xmlns="http://www.w3.org/2000/svg"
   id="svg18270"
   version="1.1"
   viewBox="0 0 6.3499999 4.4979167"
   height="4.4979167mm"
   width="6.3499999mm">
  <defs
     id="defs18264" />
  <metadata
     id="metadata18267">
    <rdf:RDF>
      <cc:Work
         rdf:about="">
        <dc:format>image/svg+xml</dc:format>
        <dc:type
           rdf:resource="http://purl.org/dc/dcmitype/StillImage" />
        <dc:title></dc:title>
      </cc:Work>
    </rdf:RDF>
  </metadata>
  <g
     transform="translate(86.214412,-67.024211)"
     id="layer1">
    <g
       transform="matrix(1.0400672,0,0,1.0422211,3.4543692,-3.019741)"
       id="g18849">
      <path
         style="font-variant:normal;font-weight:500;font-stretch:normal;font-size:4.50003529px;font-family:'Scala Sans LF';-inkscape-font-specification:ScalaSans-BoldLF;writing-mode:lr-tb;fill:#9c9a9b;fill-opacity:1;fill-rule:nonzero;stroke:none;stroke-width:0.35277778"
         d="m -85.821738,70.691277 q 0.06815,-0.03528 0.139137,-0.04147 0.06994,-0.0065 0.134714,0.01406 0.08044,0.02557 0.144705,0.08396 0.06357,0.05874 0.120586,0.168886 l 0.07055,0.136302 0.382062,-0.197761 0.07055,0.136303 -1.025026,0.530569 -0.143955,-0.278113 q -0.04775,-0.09225 -0.06505,-0.164462 -0.01799,-0.07186 -0.01061,-0.138528 0.009,-0.07883 0.05107,-0.140779 0.04177,-0.06264 0.131258,-0.108965 z m 0.07684,0.140029 q -0.05301,0.02744 -0.08262,0.06633 -0.02962,0.0389 -0.0348,0.08959 -0.0042,0.04409 0.0089,0.0914 0.0121,0.04698 0.04559,0.111691 l 0.06984,0.134926 0.409598,-0.212014 -0.05951,-0.114963 q -0.04276,-0.08261 -0.08394,-0.126755 -0.04187,-0.04379 -0.09097,-0.0594 -0.04979,-0.01525 -0.09305,-0.0095 -0.04361,0.0051 -0.08905,0.02863 z"
         id="path18241" />
      <path
         style="font-variant:normal;font-weight:500;font-stretch:normal;font-size:4.49997044px;font-family:'Scala Sans LF';-inkscape-font-specification:ScalaSans-BoldLF;writing-mode:lr-tb;fill:#9c9a9b;fill-opacity:1;fill-rule:nonzero;stroke:none;stroke-width:0.35277775"
         d="m -85.007845,69.37619 -0.01132,0.198888 -0.480077,0.359325 -0.01229,0.215914 0.458142,0.02607 -0.0087,0.153229 -1.152321,-0.06558 0.01837,-0.322711 q 0.0059,-0.104475 0.02384,-0.173331 0.01712,-0.0689 0.05512,-0.122641 0.04304,-0.06044 0.105381,-0.09183 0.06162,-0.03221 0.153709,-0.02697 0.124596,0.0071 0.205382,0.07457 0.08001,0.06744 0.116322,0.179757 z m -0.848454,0.311182 q -0.04953,-0.0028 -0.08846,0.01281 -0.03966,0.01481 -0.06827,0.05357 -0.02434,0.03201 -0.03545,0.07717 -0.01189,0.04513 -0.01541,0.107043 l -0.01026,0.180317 0.434926,0.02475 0.0088,-0.154777 q 0.0041,-0.07275 -0.0052,-0.127624 -0.01007,-0.05492 -0.04274,-0.09482 -0.03052,-0.03668 -0.07139,-0.05531 -0.0416,-0.01943 -0.106602,-0.02313 z"
         id="path18219" />
      <path
         style="font-variant:normal;font-weight:500;font-stretch:normal;font-size:4.49998999px;font-family:'Scala Sans LF';-inkscape-font-specification:ScalaSans-BoldLF;writing-mode:lr-tb;fill:#9c9a9b;fill-opacity:1;fill-rule:nonzero;stroke:none;stroke-width:0.35277778"
         d="m -85.258333,68.254793 q 0.104674,-0.0052 0.215102,0.0375 0.110916,0.0421 0.221038,0.132747 0.110119,0.09064 0.172867,0.192484 0.06264,0.100753 0.07685,0.201804 0.01512,0.104814 -0.01642,0.205344 -0.03106,0.09993 -0.110366,0.19629 -0.07734,0.09396 -0.172007,0.145553 -0.09418,0.05099 -0.197761,0.05608 -0.103585,0.0051 -0.213906,-0.03652 -0.109826,-0.04221 -0.220544,-0.133341 -0.108926,-0.08966 -0.17146,-0.18932 -0.06313,-0.100156 -0.07946,-0.205957 -0.0153,-0.100942 0.01762,-0.20436 0.03341,-0.104018 0.109273,-0.196184 0.07882,-0.09576 0.1731,-0.145654 0.09417,-0.05099 0.196072,-0.05647 z m 0.334651,0.293548 q -0.173561,-0.142859 -0.331564,-0.142396 -0.1586,-3.2e-5 -0.269437,0.134626 -0.111824,0.135856 -0.0813,0.291494 0.03042,0.154542 0.203977,0.297402 0.175353,0.144334 0.333744,0.142183 0.157786,-0.0026 0.267148,-0.135508 0.10936,-0.132863 0.08113,-0.287618 -0.02834,-0.155849 -0.203693,-0.300183 z"
         id="path18224" />
      <path
         style="font-variant:normal;font-weight:500;font-stretch:normal;font-size:4.50003052px;font-family:'Scala Sans LF';-inkscape-font-specification:ScalaSans-BoldLF;writing-mode:lr-tb;fill:#9c9a9b;fill-opacity:1;fill-rule:nonzero;stroke:none;stroke-width:0.35277775"
         d="m -83.861225,67.661911 -0.561389,0.1598 0.08913,0.313126 0.482362,-0.137305 0.03735,0.131214 -0.482362,0.137305 0.15216,0.534549 -0.147616,0.04202 -0.315992,-1.110102 0.709004,-0.20182 z"
         id="path18229" />
      <path
         style="font-variant:normal;font-weight:500;font-stretch:normal;font-size:4.50004148px;font-family:'Scala Sans LF';-inkscape-font-specification:ScalaSans-BoldLF;writing-mode:lr-tb;fill:#9c9a9b;fill-opacity:1;fill-rule:nonzero;stroke:none;stroke-width:0.35277775"
         d="m -81.686355,68.423536 -0.757428,-0.06746 0.10239,-1.149653 0.757428,0.06746 -0.0121,0.135889 -0.604552,-0.05384 -0.02806,0.315015 0.604553,0.05384 -0.0121,0.135889 -0.604552,-0.05384 -0.03803,0.42697 0.604553,0.05384 z"
         id="path18232" />
      <path
         d="m -82.263875,70.315834 c -0.508352,0 -0.921808,-0.413456 -0.921808,-0.921808 0,-0.508353 0.413456,-0.921809 0.921808,-0.921809 0.508706,0 0.922162,0.413456 0.922162,0.921809 0,0.508352 -0.413456,0.921808 -0.922162,0.921808 m 0,-1.645355 c -0.398991,0 -0.723547,0.324202 -0.723547,0.723547 0,0.398991 0.324556,0.723547 0.723547,0.723547 0.398992,0 0.7239,-0.324556 0.7239,-0.723547 0,-0.399345 -0.324908,-0.723547 -0.7239,-0.723547"
         style="fill:#0a0a0d;fill-opacity:1;fill-rule:nonzero;stroke:none;stroke-width:0.35277775"
         id="path17723" />
      <path
         style="font-variant:normal;font-weight:500;font-stretch:normal;font-size:4.49999809px;font-family:'Scala Sans LF';-inkscape-font-specification:ScalaSans-BoldLF;writing-mode:lr-tb;fill:#9c9a9b;fill-opacity:1;fill-rule:nonzero;stroke:none;stroke-width:0.35277775"
         d="m -80.388624,68.155545 -0.67704,0.160744 -0.09156,0.700307 -0.132505,-0.118118 0.08127,-0.564109 -0.556892,0.140122 -0.124982,-0.111413 0.684059,-0.162794 0.09091,-0.692583 0.131926,0.117602 -0.08003,0.556902 0.549293,-0.138588 z"
         id="path18235" />
      <path
         style="font-variant:normal;font-weight:500;font-stretch:normal;font-size:4.5000124px;font-family:'Scala Sans LF';-inkscape-font-specification:ScalaSans-BoldLF;writing-mode:lr-tb;fill:#9c9a9b;fill-opacity:1;fill-rule:nonzero;stroke:none;stroke-width:0.35277775"
         d="m -80.383542,69.510153 q -0.07532,0.0147 -0.145183,6.91e-4 -0.06896,-0.0134 -0.125329,-0.05136 -0.07001,-0.04715 -0.115274,-0.121243 -0.0445,-0.07424 -0.06825,-0.19597 l -0.0294,-0.150638 -0.422243,0.0824 -0.0294,-0.150638 1.132827,-0.221066 0.05998,0.307362 q 0.01989,0.101947 0.0162,0.176116 -0.0029,0.07402 -0.02876,0.135924 -0.03074,0.07313 -0.08858,0.120747 -0.05769,0.04838 -0.156593,0.06768 z m -0.03439,-0.155982 q 0.05858,-0.01143 0.09794,-0.04044 0.03936,-0.029 0.05858,-0.07619 0.01646,-0.04112 0.01715,-0.09022 0.0016,-0.04849 -0.01236,-0.120002 l -0.0291,-0.149116 -0.452675,0.08834 0.02479,0.127053 q 0.01782,0.0913 0.04493,0.145238 0.02787,0.05379 0.07061,0.08257 0.0435,0.02863 0.08664,0.03522 0.04329,0.0074 0.0935,-0.0024 z"
         id="path18238" />
      <path
         d="m -83.665002,71.147544 c 0.579261,0 1.048455,-0.469195 1.048455,-1.048103 0,-0.578908 -0.469194,-1.04775 -1.048455,-1.04775 -0.578908,0 -1.048103,0.468842 -1.048103,1.04775 0,0.578908 0.469195,1.048103 1.048103,1.048103"
         style="fill:#ffffff;fill-opacity:1;fill-rule:nonzero;stroke:none;stroke-width:0.35277775"
         id="path18199" />
      <path
         d="m -83.665002,71.27398 c -0.6477,0 -1.174397,-0.526697 -1.174397,-1.174397 0,-0.6477 0.526697,-1.174397 1.174397,-1.174397 0.648053,0 1.17475,0.526697 1.17475,1.174397 0,0.6477 -0.526697,1.174397 -1.17475,1.174397 m 0,-2.096205 c -0.508353,0 -0.921808,0.413103 -0.921808,0.921808 0,0.508353 0.413455,0.921808 0.921808,0.921808 0.508353,0 0.922161,-0.413455 0.922161,-0.921808 0,-0.508705 -0.413808,-0.921808 -0.922161,-0.921808"
         style="fill:#0a0a0d;fill-opacity:1;fill-rule:nonzero;stroke:none;stroke-width:0.35277775"
         id="path18211" />
    </g>
  </g>
</svg>
