
<?xml version="1.0" encoding="UTF-8" standalone="no"?>
<svg
   xmlns:dc="http://purl.org/dc/elements/1.1/"
   xmlns:cc="http://creativecommons.org/ns#"
   xmlns:rdf="http://www.w3.org/1999/02/22-rdf-syntax-ns#"
   xmlns:svg="http://www.w3.org/2000/svg"
   xmlns="http://www.w3.org/2000/svg"
   id="svg18270"
   version="1.1"
   viewBox="0 0 6.3499999 4.4979167"
   height="4.4979167mm"
   width="6.3499999mm">
  <defs
     id="defs18264" />
  <metadata
     id="metadata18267">
    <rdf:RDF>
      <cc:Work
         rdf:about="">
        <dc:format>image/svg+xml</dc:format>
        <dc:type
           rdf:resource="http://purl.org/dc/dcmitype/StillImage" />
        <dc:title></dc:title>
      </cc:Work>
    </rdf:RDF>
  </metadata>
  <g
     transform="translate(86.214412,-67.024211)"
     id="layer1">
    <g
       id="g1451">
      <path
         d="m -82.105589,70.264905 c -0.52872,0 -0.958742,-0.430913 -0.958742,-0.960728 0,-0.529816 0.430022,-0.960729 0.958742,-0.960729 0.529088,0 0.959111,0.430913 0.959111,0.960729 0,0.529815 -0.430023,0.960728 -0.959111,0.960728 m 0,-1.714824 c -0.414977,0 -0.752537,0.33789 -0.752537,0.754096 0,0.415837 0.33756,0.754096 0.752537,0.754096 0.414979,0 0.752905,-0.338259 0.752905,-0.754096 0,-0.416206 -0.337926,-0.754096 -0.752905,-0.754096"
         style="fill:#0a0a0d;fill-opacity:1;fill-rule:nonzero;stroke:none;stroke-width:0.36729228"
         id="path17723" />
      <path
         d="m -83.562855,71.131731 c 0.60247,0 1.090463,-0.489005 1.090463,-1.092355 0,-0.603351 -0.487993,-1.091988 -1.090463,-1.091988 -0.602103,0 -1.090098,0.488637 -1.090098,1.091988 0,0.60335 0.487995,1.092355 1.090098,1.092355"
         style="fill:#000000;fill-opacity:1;fill-rule:nonzero;stroke:none;stroke-width:0.36729228"
         id="path18199" />
      <path
         d="m -83.562855,71.263505 c -0.673652,0 -1.221452,-0.548935 -1.221452,-1.223981 0,-0.675047 0.5478,-1.223982 1.221452,-1.223982 0.674019,0 1.221819,0.548935 1.221819,1.223982 0,0.675046 -0.5478,1.223981 -1.221819,1.223981 m 0,-2.184709 c -0.528721,0 -0.958742,0.430544 -0.958742,0.960728 0,0.529816 0.430021,0.960727 0.958742,0.960727 0.528721,0 0.959109,-0.430911 0.959109,-0.960727 0,-0.530184 -0.430388,-0.960728 -0.959109,-0.960728"
         style="fill:#0a0a0d;fill-opacity:1;fill-rule:nonzero;stroke:none;stroke-width:0.36729228"
         id="path18211" />
    </g>
  </g>
</svg>
